<svg width="1440" height="619" viewBox="0 0 1440 619" fill="none" xmlns="http://www.w3.org/2000/svg">
<path d="M1261.49 616.815L1261.97 617.627C1262.27 618.115 1262.66 618.505 1263.18 618.732C1263.83 619.187 1264.86 618.96 1265.58 618.797C1266.52 618.57 1267.27 618.277 1268.14 617.822C1269.09 617.335 1269.96 616.782 1270.87 616.23C1272.14 615.45 1273.47 614.735 1274.74 613.922C1278.79 611.355 1282.5 608.235 1286.17 605.212C1290.32 601.8 1294.32 598.16 1298.21 594.487C1305.13 587.988 1311.56 580.935 1318.12 574.078C1319.71 572.42 1321.4 570.828 1322.89 569.04C1325.29 566.213 1327.7 563.385 1330.1 560.558C1335.04 554.741 1340.07 549.021 1344.91 543.138C1364.52 519.349 1384.16 495.591 1404.04 471.997C1412.9 461.499 1421.9 451.132 1430.99 440.83C1435.96 435.207 1440.96 429.585 1445.99 423.962C1448.26 421.428 1450.6 418.958 1452.91 416.423C1453.88 415.35 1454.92 414.343 1455.93 413.27C1457.81 411.32 1459.66 409.338 1461.61 407.485C1461.9 407.258 1462.23 407.03 1462.55 406.803C1462.36 407.258 1462.13 407.713 1461.9 408.135C1461.09 409.468 1460.28 410.8 1459.5 412.165C1458.59 413.758 1457.74 415.35 1456.84 416.943C1451.41 426.107 1445.47 434.98 1439.69 443.917C1436.09 449.475 1432.42 454.935 1428.72 460.459C1420.53 472.647 1412.35 484.834 1404.04 496.956C1395.27 509.761 1386.5 522.566 1377.7 535.338C1374.07 540.636 1370.4 545.901 1366.82 551.231C1364.68 554.481 1362.44 557.666 1360.33 560.948C1358.45 563.905 1356.43 566.798 1354.65 569.788C1353.41 571.868 1352.18 573.948 1350.95 576.028C1349.23 578.888 1347.83 581.878 1346.3 584.835C1345.98 585.615 1345.65 586.395 1345.39 587.175C1345.23 587.923 1345.1 588.638 1345 589.385C1345.07 590.003 1345.13 590.588 1345.26 591.173C1345.46 591.758 1345.65 592.343 1345.85 592.928C1346.21 593.967 1347.24 593.837 1348.06 593.61C1349.23 593.285 1350.36 593.025 1351.53 592.733C1352.67 592.44 1353.67 591.953 1354.71 591.4C1356.73 590.328 1358.58 589.06 1360.4 587.695C1362.21 586.33 1363.9 584.803 1365.66 583.34C1367.96 581.423 1370.17 579.44 1372.38 577.425C1376.66 573.493 1380.79 569.398 1384.81 565.173C1388.35 561.468 1391.89 557.763 1395.4 554.058C1397.48 551.848 1399.69 549.736 1401.67 547.461C1407.25 541.188 1412.8 534.851 1418.39 528.578C1419.82 526.953 1421.28 525.393 1422.68 523.704C1425.11 520.746 1427.55 517.789 1429.98 514.831C1440.11 502.546 1450.28 490.229 1460.41 477.912C1465.08 472.257 1469.82 466.634 1474.53 461.012C1478.72 456.007 1482.85 450.97 1487.07 446.03C1490.31 442.195 1493.56 438.327 1496.87 434.525C1498.59 432.542 1500.31 430.495 1502.07 428.545C1503.17 427.31 1504.24 426.075 1505.32 424.84C1505.06 425.327 1504.76 425.847 1504.5 426.335C1500.09 433.907 1495.28 441.285 1490.64 448.695C1486.42 455.422 1482.03 462.052 1477.71 468.714C1473.79 474.824 1469.95 481.064 1466.06 487.239C1462.42 493.056 1458.75 498.809 1455.08 504.594C1447.13 517.139 1439.07 529.651 1431.22 542.293C1427.74 547.851 1424.23 553.441 1420.89 559.095C1418.78 562.67 1416.67 566.245 1414.62 569.853C1413.58 571.738 1412.51 573.59 1411.54 575.475C1410.4 577.62 1409.39 579.863 1408.36 582.04C1407.84 583.145 1407.45 584.348 1407.15 585.55C1406.8 587.045 1407.09 588.475 1407.32 589.97C1407.45 590.783 1407.61 591.823 1408.75 591.79C1409.78 591.725 1410.82 591.725 1411.86 591.66C1412.84 591.595 1413.84 591.205 1414.75 590.848C1416.73 590.035 1418.58 588.703 1420.27 587.435C1424.4 584.315 1428.33 580.903 1432.06 577.36C1439.66 570.178 1446.54 562.28 1453.26 554.286C1459.11 547.363 1464.69 540.181 1470.41 533.096C1474.18 528.383 1477.91 523.671 1481.64 518.926C1486.12 513.239 1490.67 507.616 1495.09 501.864C1513.56 477.912 1531.94 453.862 1551 430.365C1554.87 425.717 1558.7 421.103 1562.66 416.52C1564.54 414.31 1566.49 412.165 1568.44 409.988C1569.19 409.143 1569.93 408.33 1570.71 407.518C1570.97 407.258 1571.2 406.998 1571.46 406.738C1571.2 407.193 1570.91 407.68 1570.68 408.168C1569.58 410.215 1568.54 412.263 1567.37 414.31C1562.17 423.15 1556.52 431.697 1551 440.342C1547.3 446.16 1543.5 451.88 1539.74 457.664C1536.2 463.092 1532.66 468.519 1529.18 474.012C1525.22 480.284 1521.26 486.557 1517.27 492.829C1508.76 506.186 1500.22 519.511 1491.65 532.836C1488.04 538.458 1484.5 544.113 1480.99 549.801C1476.84 556.528 1472.71 563.255 1468.85 570.178C1468.04 571.64 1467.23 573.103 1466.41 574.565C1464.53 577.913 1463.01 581.455 1461.71 585.063C1461.12 586.558 1460.44 588.085 1460.38 589.678C1460.31 591.043 1460.54 592.277 1461.22 593.447C1461.45 593.837 1461.77 594.195 1462.16 594.487C1462.42 594.552 1462.68 594.65 1462.94 594.715C1463.39 594.91 1463.91 594.975 1464.4 594.877C1465.28 594.877 1466.25 594.52 1467.1 594.292C1468.04 594.032 1468.92 593.61 1469.79 593.253C1473.27 591.758 1476.29 589.223 1479.21 586.85C1482.62 584.12 1485.83 581.098 1488.92 577.978C1494.89 571.998 1500.51 565.628 1506.22 559.388C1507.65 557.828 1509.15 556.333 1510.48 554.708C1512.33 552.466 1514.21 550.223 1516.06 548.013C1520.64 542.488 1525.32 537.028 1529.83 531.471C1529.67 531.666 1529.51 531.861 1529.34 532.056C1536.59 523.314 1543.76 514.571 1550.94 505.764C1550.61 506.154 1550.29 506.576 1549.96 506.966C1555.19 500.661 1560.52 494.421 1565.78 488.149C1567.5 486.102 1569.19 483.957 1570.97 481.942C1573.28 479.342 1575.62 476.774 1577.95 474.174C1582.66 468.909 1587.34 463.579 1592.18 458.379C1597.34 452.855 1602.47 447.297 1607.7 441.805C1612.34 436.93 1617.02 432.055 1621.73 427.245C1623.64 425.262 1625.59 423.28 1627.54 421.33C1630.56 418.373 1633.51 415.285 1636.63 412.425C1637.18 411.97 1637.77 411.548 1638.35 411.158C1638.84 410.93 1639.33 410.703 1639.81 410.475C1639.88 410.573 1639.91 410.67 1639.97 410.768C1640.14 411.028 1640.23 411.32 1640.33 411.613C1640.33 411.775 1640.33 411.905 1640.33 412.068C1640.23 412.588 1640.1 413.075 1639.94 413.563C1639.13 415.448 1638.16 417.235 1637.15 419.055C1636.01 421.135 1635.01 423.345 1633.9 425.457C1631.53 430.007 1628.87 434.427 1626.34 438.88C1622.31 445.802 1618.28 452.757 1614.26 459.679C1610.62 465.952 1606.72 472.062 1602.92 478.204C1595.65 490.067 1588.15 501.766 1580.84 513.596C1576.79 520.194 1572.73 526.791 1568.67 533.421C1565.03 539.336 1561.39 545.251 1557.89 551.231C1555.91 554.676 1553.8 558.088 1551.91 561.565C1548.79 567.318 1545.61 573.038 1543.79 579.375C1543.5 580.448 1543.14 581.65 1543.11 582.755C1543.11 583.113 1543.11 583.47 1543.11 583.828C1543.21 584.413 1543.31 584.965 1543.4 585.55C1543.57 586.33 1544.09 586.85 1544.61 587.403C1544.87 587.468 1545.13 587.565 1545.39 587.63C1545.84 587.793 1546.33 587.825 1546.85 587.695C1548.76 587.5 1550.61 586.525 1552.27 585.615C1554.61 584.38 1556.69 582.82 1558.73 581.163C1562.63 578.075 1566.46 574.858 1570.13 571.51C1572.24 569.56 1574.35 567.61 1576.33 565.563C1580.39 561.338 1584.48 557.113 1588.54 552.888C1590.75 550.613 1592.96 548.371 1595 545.998L1607.31 531.633C1609.74 528.806 1612.21 525.978 1614.58 523.119C1614.68 523.021 1614.78 522.891 1614.84 522.794C1614.94 522.664 1615.07 522.534 1615.17 522.404C1615.56 522.014 1615.91 521.591 1616.21 521.104C1616.21 521.104 1616.21 521.071 1616.24 521.039C1616.34 520.909 1616.47 520.779 1616.56 520.616C1616.47 520.746 1616.34 520.876 1616.24 521.006C1616.37 520.844 1616.5 520.681 1616.63 520.551C1616.99 520.161 1617.34 519.771 1617.63 519.316C1617.63 519.284 1617.7 519.251 1617.7 519.219C1617.99 518.894 1618.25 518.536 1618.54 518.211C1618.9 517.854 1619.19 517.464 1619.49 517.074C1619.62 516.911 1619.75 516.781 1619.88 516.619C1620.2 516.229 1620.52 515.839 1620.85 515.449C1621.21 515.091 1621.5 514.701 1621.79 514.311C1621.92 514.149 1622.05 514.019 1622.15 513.856C1622.99 512.816 1623.84 511.809 1624.68 510.769C1624.36 511.159 1624.03 511.581 1623.71 511.971C1624.75 510.704 1625.75 509.436 1626.79 508.201C1626.47 508.591 1626.14 509.014 1625.82 509.404C1626.37 508.721 1626.92 508.071 1627.47 507.389C1627.51 507.324 1627.57 507.291 1627.6 507.226C1628.12 506.739 1628.58 506.154 1628.97 505.569C1628.97 505.569 1629 505.536 1629.03 505.504C1629.81 504.561 1630.59 503.619 1631.34 502.676C1631.86 502.189 1632.31 501.636 1632.67 501.051C1632.8 500.889 1632.9 500.759 1633.03 500.596C1633.22 500.336 1633.45 500.076 1633.64 499.816C1633.55 499.946 1633.45 500.076 1633.32 500.206C1633.51 499.979 1633.71 499.751 1633.9 499.491C1633.97 499.426 1634 499.361 1634.07 499.296C1634.07 499.296 1634.03 499.329 1634 499.361C1634 499.361 1634.03 499.329 1634.07 499.296C1634.13 499.199 1634.23 499.101 1634.29 499.004C1634.26 499.069 1634.19 499.101 1634.16 499.166C1634.16 499.166 1634.16 499.166 1634.19 499.134C1634.45 498.809 1634.71 498.484 1634.97 498.159C1634.75 498.451 1634.49 498.744 1634.26 499.036C1634.36 498.906 1634.49 498.776 1634.58 498.646C1635.01 498.126 1635.4 497.639 1635.82 497.119C1635.75 497.184 1635.72 497.249 1635.66 497.314C1635.59 497.379 1635.56 497.444 1635.49 497.509C1635.53 497.476 1635.56 497.411 1635.62 497.379C1635.56 497.476 1635.46 497.574 1635.4 497.671C1635.56 497.476 1635.75 497.249 1635.92 497.054C1636.01 496.956 1636.08 496.859 1636.18 496.729C1636.11 496.826 1636.05 496.891 1635.98 496.989C1639 493.251 1641.96 489.417 1644.91 485.614C1648.97 480.479 1653 475.344 1657.02 470.209C1659.88 466.569 1662.87 462.962 1665.79 459.354C1669.2 455.097 1672.64 450.872 1676.05 446.647C1683.39 437.937 1690.76 429.292 1698.2 420.68C1701.93 416.358 1705.73 412.068 1709.56 407.778C1711.18 405.958 1712.84 404.17 1714.5 402.383C1715.47 401.343 1716.48 400.27 1717.45 399.23C1718.75 397.833 1720.11 396.5 1721.51 395.168C1722.16 394.55 1722.78 393.868 1723.43 393.25C1722.97 395.46 1722.48 397.638 1721.77 399.783C1720.08 404.138 1718.04 408.33 1715.99 412.49C1713.59 417.43 1710.93 422.24 1708.26 427.05C1706.09 430.982 1703.91 434.947 1701.7 438.847C1697.87 445.737 1694.01 452.595 1690.18 459.484C1682.58 473.102 1675.01 486.719 1667.51 500.401C1660.56 513.109 1653.78 525.881 1647.05 538.751C1643.74 545.121 1640.43 551.523 1637.15 557.958C1633.77 564.523 1630.53 571.218 1627.64 578.043C1626.92 579.765 1626.24 581.488 1625.62 583.275C1625.07 584.77 1624.65 586.363 1624.23 587.923C1624.1 588.703 1624 589.483 1623.9 590.263C1623.9 591.075 1624.03 591.92 1624.19 592.733C1624.36 593.675 1624.49 594.487 1625.62 594.552C1626.3 594.617 1627.02 594.65 1627.73 594.715C1628.71 594.78 1629.78 594.39 1630.66 594.065C1631.34 593.772 1631.99 593.415 1632.64 593.058C1633.61 592.505 1634.49 591.92 1635.36 591.27C1638.48 588.963 1641.47 586.395 1644.29 583.73C1647.28 580.935 1650.07 577.945 1652.83 574.923C1655.79 571.738 1658.71 568.553 1661.63 565.335C1663 563.84 1664.39 562.378 1665.69 560.85C1665.69 560.85 1665.76 560.785 1665.79 560.753C1666.18 560.363 1666.54 559.94 1666.83 559.453C1666.96 559.29 1667.09 559.128 1667.22 558.998C1667.22 559.031 1667.15 559.063 1667.12 559.095C1667.19 558.998 1667.28 558.901 1667.35 558.803C1667.41 558.738 1667.48 558.641 1667.54 558.576C1667.54 558.576 1667.61 558.511 1667.61 558.478C1667.67 558.381 1667.77 558.283 1667.84 558.218C1667.77 558.283 1667.71 558.381 1667.64 558.446C1667.84 558.218 1668.03 557.991 1668.23 557.731C1668.58 557.373 1668.91 556.951 1669.2 556.528C1669.33 556.366 1669.46 556.236 1669.56 556.073C1669.88 555.748 1670.17 555.358 1670.47 554.968C1670.47 554.936 1670.53 554.903 1670.56 554.838C1670.69 554.676 1670.82 554.546 1670.95 554.383C1671.21 554.091 1671.44 553.798 1671.67 553.473C1671.76 553.343 1671.89 553.181 1672.02 553.051C1672.25 552.758 1672.48 552.498 1672.71 552.206C1673.19 551.686 1673.62 551.133 1674.04 550.581C1674.17 550.418 1674.3 550.256 1674.46 550.093C1674.59 549.963 1674.69 549.833 1674.75 549.736C1675.11 549.378 1675.43 548.956 1675.73 548.501C1675.79 548.403 1675.86 548.338 1675.92 548.241C1676.08 548.046 1676.25 547.851 1676.41 547.656C1676.8 547.266 1677.15 546.811 1677.48 546.323C1677.71 546.031 1677.93 545.771 1678.16 545.478C1678.19 545.413 1678.26 545.348 1678.29 545.316C1678.55 545.056 1678.81 544.763 1679.04 544.471C1679.23 544.243 1679.43 543.983 1679.62 543.756C1680.27 543.041 1680.86 542.228 1681.47 541.481C1681.96 540.993 1682.42 540.441 1682.77 539.888C1682.67 540.018 1682.58 540.148 1682.45 540.278C1682.55 540.148 1682.64 540.018 1682.77 539.888L1682.87 539.758C1683 539.596 1683.13 539.433 1683.26 539.303C1683.26 539.271 1683.32 539.238 1683.36 539.206C1683.36 539.173 1683.42 539.141 1683.45 539.108C1683.55 538.978 1683.68 538.848 1683.78 538.686C1684.04 538.393 1684.27 538.068 1684.53 537.776C1684.49 537.808 1684.46 537.873 1684.43 537.906C1686.05 535.891 1687.61 533.811 1689.17 531.763C1692.45 527.538 1695.73 523.281 1698.98 519.024C1702.51 514.441 1706.05 509.826 1709.63 505.211C1719.69 492.146 1729.79 479.082 1739.89 466.049C1741.09 464.489 1742.26 462.897 1743.49 461.369C1743.75 461.077 1744.01 460.752 1744.27 460.427C1744.4 460.264 1744.53 460.102 1744.7 459.907C1744.92 459.647 1745.15 459.387 1745.34 459.127C1745.67 458.769 1745.99 458.379 1746.25 457.957C1746.29 457.892 1746.35 457.827 1746.38 457.794C1746.71 457.404 1747.03 456.982 1747.39 456.592C1747.81 456.137 1748.2 455.682 1748.46 455.26C1749.44 454.09 1750.38 452.92 1751.35 451.717L1754.24 448.175C1754.24 448.175 1754.27 448.142 1754.31 448.11C1754.79 447.655 1755.25 447.102 1755.61 446.517C1755.93 446.127 1756.22 445.737 1756.55 445.347C1756.68 445.185 1756.84 445.022 1756.97 444.86C1757.2 444.6 1757.42 444.307 1757.65 444.015C1757.78 443.852 1757.88 443.722 1758.01 443.56C1757.91 443.69 1757.81 443.787 1757.72 443.917L1757.88 443.722C1757.88 443.722 1757.78 443.852 1757.75 443.885C1757.75 443.885 1757.94 443.657 1758.04 443.527C1758.2 443.332 1758.33 443.137 1758.5 442.975C1758.43 443.072 1758.33 443.17 1758.27 443.267C1758.33 443.17 1758.4 443.105 1758.5 443.007C1758.5 443.04 1758.43 443.072 1758.4 443.105C1758.43 443.072 1758.46 443.007 1758.5 442.975C1758.53 442.91 1758.59 442.877 1758.63 442.812C1764.02 436.345 1769.41 429.877 1774.86 423.475C1777.65 420.193 1780.51 416.975 1783.37 413.725C1784.44 412.523 1785.51 411.32 1786.62 410.15C1788.73 407.908 1790.77 405.6 1792.98 403.455C1793.11 403.358 1793.24 403.26 1793.37 403.163C1793.6 403.065 1793.82 402.968 1794.05 402.87C1794.05 403.26 1794.05 403.65 1794.05 404.04C1793.95 404.365 1793.86 404.723 1793.76 405.048C1792.85 407.225 1791.75 409.24 1790.58 411.288C1789.28 413.53 1788.08 415.805 1786.81 418.08C1786.97 417.788 1787.14 417.495 1787.33 417.203C1787.17 417.495 1786.97 417.82 1786.81 418.113C1781.52 427.212 1775.87 436.085 1770.32 444.99C1766.48 451.165 1762.72 457.404 1758.92 463.612C1751.38 475.929 1743.69 488.149 1736.19 500.531C1734.34 503.586 1732.52 506.674 1730.67 509.761C1728.91 512.719 1727.13 515.676 1725.47 518.699C1723.69 521.949 1721.97 525.199 1720.28 528.513C1719.34 530.366 1718.59 532.316 1717.84 534.266C1717.52 535.176 1716.9 536.541 1717 537.548C1717 537.776 1717.06 538.003 1717.06 538.263C1717 538.913 1717.22 539.433 1717.71 539.856C1718.2 540.473 1718.59 540.668 1719.37 540.831C1719.53 540.896 1719.72 540.928 1719.89 540.961C1720.47 540.863 1721.06 540.766 1721.61 540.636C1722.52 540.181 1723.36 539.726 1724.21 539.141C1725.31 538.393 1726.28 537.386 1727.32 536.541C1731.67 532.998 1735.41 528.741 1739.18 524.581C1742.29 521.136 1745.38 517.724 1748.49 514.279C1750.41 512.166 1752.1 509.859 1753.88 507.649C1757.16 503.586 1760.44 499.524 1763.72 495.429C1771.91 485.322 1779.67 474.857 1787.56 464.522C1791.03 459.972 1794.67 455.552 1798.21 451.067C1802.3 445.932 1806.39 440.732 1810.48 435.597C1819.64 424.807 1828.7 413.92 1837.95 403.228C1848.12 391.528 1858.38 379.893 1868.74 368.421C1870.04 366.991 1871.37 365.561 1872.67 364.163C1874.81 361.823 1876.92 359.386 1879.19 357.176C1879.48 356.948 1879.81 356.721 1880.13 356.526C1880.33 356.428 1880.49 356.331 1880.69 356.233C1880.75 356.396 1880.78 356.526 1880.85 356.688C1880.85 356.753 1880.85 356.851 1880.85 356.916C1880.78 357.273 1880.69 357.598 1880.59 357.956C1879.68 360.003 1878.58 361.921 1877.47 363.871C1876.21 366.113 1875.07 368.421 1873.8 370.631C1867.08 382.071 1859.84 393.283 1852.76 404.528C1850.16 408.655 1847.7 412.88 1845.16 417.04C1842.27 421.818 1839.25 426.562 1836.46 431.405C1836.72 430.95 1836.98 430.527 1837.24 430.072C1821.82 456.365 1806.75 482.884 1791.81 509.469C1788.43 515.481 1785.09 521.526 1781.84 527.603C1780.22 530.626 1778.69 533.713 1777.13 536.768C1776.29 538.458 1775.58 540.181 1774.76 541.871C1774.05 543.431 1773.4 545.056 1772.85 546.681C1772.49 547.753 1772.17 548.793 1771.87 549.898C1771.52 551.328 1771.52 552.758 1771.61 554.188C1771.68 555.033 1771.97 556.041 1773.04 556.008C1774.08 556.008 1775.06 555.976 1776.13 555.781C1777.2 555.586 1778.04 555.196 1779.02 554.741C1781.03 553.766 1782.85 552.433 1784.64 551.036C1788.76 547.818 1792.72 544.308 1796.55 540.733C1804.02 533.713 1810.94 526.043 1818.11 518.699C1823.11 513.564 1827.98 508.266 1832.92 503.066C1843.7 491.659 1854.48 480.219 1865.23 468.747C1874.74 458.607 1884.13 448.37 1893.61 438.197C1899.03 432.38 1904.49 426.562 1909.94 420.778C1914.52 415.935 1919.16 411.093 1924.04 406.543C1925.53 405.178 1926.99 403.78 1928.48 402.448C1927.9 403.683 1927.28 404.885 1926.67 406.088C1926.08 407.258 1925.3 410.215 1927.45 410.378C1928.16 410.313 1928.84 410.085 1929.43 409.63C1930.66 408.785 1931.57 407.485 1932.22 406.185C1933.48 403.683 1934.72 401.148 1935.86 398.58C1936.18 397.833 1936.44 397.085 1936.73 396.338C1936.86 395.655 1936.93 394.973 1936.99 394.29C1937.09 393.283 1936.31 392.503 1935.69 391.853C1934.95 391.105 1933.55 392.048 1932.93 392.373C1932.15 392.828 1931.37 393.25 1930.63 393.738C1929.62 394.388 1928.71 395.265 1927.8 396.045C1926.93 396.793 1926.08 397.573 1925.24 398.353C1923.94 399.588 1922.61 400.758 1921.34 401.993C1918.65 404.625 1915.98 407.258 1913.35 409.955C1908.51 414.928 1903.74 419.933 1899 425.002C1889.03 435.727 1879.16 446.485 1869.16 457.177C1859.35 467.609 1849.58 478.074 1839.77 488.474C1832.89 495.754 1825.97 503.034 1819.09 510.314C1816.65 512.881 1814.22 515.384 1811.78 517.919C1804.67 525.328 1797.69 532.836 1789.99 539.628C1789.86 539.726 1789.77 539.823 1789.64 539.953C1786.81 542.358 1783.95 544.861 1780.77 546.778C1780.35 546.973 1779.89 547.168 1779.44 547.331C1779.12 547.363 1778.79 547.396 1778.47 547.428C1778.69 546.453 1778.99 545.478 1779.28 544.536C1782.17 537.191 1786.06 530.236 1789.77 523.314C1792.92 517.431 1796.23 511.614 1799.51 505.796C1806.91 492.601 1814.44 479.472 1821.91 466.309C1823.6 463.352 1825.26 460.394 1826.95 457.469C1831.75 449.247 1836.56 440.992 1841.33 432.737C1847.05 423.247 1852.76 413.725 1858.67 404.333C1862.73 397.898 1866.76 391.43 1870.78 384.963C1873.8 380.121 1876.79 375.246 1879.65 370.273C1880.65 368.518 1881.63 366.731 1882.54 364.911C1883.45 363.156 1884.45 361.498 1885.36 359.776C1886.3 358.053 1886.95 356.168 1887.44 354.251C1887.51 353.861 1887.57 353.471 1887.6 353.081C1887.8 352.399 1887.8 351.684 1887.6 350.969C1887.47 349.864 1887.08 348.921 1886.73 347.881C1886.43 346.971 1885.26 346.809 1884.52 347.199C1882.44 348.271 1880.39 349.246 1878.58 350.741C1876.69 352.301 1875.13 354.121 1873.48 355.908C1872.11 357.403 1870.75 358.866 1869.35 360.361C1866.89 363.026 1864.45 365.756 1861.98 368.453C1856.85 374.141 1851.82 379.861 1846.72 385.581C1837.11 396.435 1827.76 407.485 1818.41 418.568C1814.18 423.572 1809.87 428.48 1805.81 433.615C1799.8 441.187 1793.79 448.76 1787.75 456.332C1784.25 460.752 1780.84 465.204 1777.43 469.689C1774.18 473.914 1770.93 478.172 1767.69 482.397C1766.26 484.282 1764.83 486.232 1763.37 488.052C1757.78 494.974 1752.23 501.896 1746.64 508.786C1743.88 511.841 1741.12 514.864 1738.36 517.919C1734.73 521.916 1731.15 525.978 1727.16 529.618C1727.52 529.326 1727.84 529.001 1728.2 528.708C1726.9 529.846 1725.57 531.016 1724.14 532.056C1724.66 530.723 1725.24 529.391 1725.89 528.123L1728.04 523.931C1728.98 522.079 1729.99 520.291 1730.99 518.504C1734.4 512.686 1737.81 506.901 1741.32 501.116C1745.09 494.909 1748.98 488.734 1752.78 482.527C1760.25 470.404 1767.62 458.217 1775.15 446.095C1778.17 441.22 1781.23 436.345 1784.25 431.47C1787.79 425.75 1791.26 419.998 1794.44 414.083C1796 411.158 1797.79 408.33 1799.12 405.275C1799.73 403.878 1800.19 402.383 1800.58 400.92C1801.07 399.1 1800.81 397.183 1800.74 395.363C1800.68 393.933 1799.77 393.185 1798.37 393.738C1797.43 394.095 1796.49 394.42 1795.58 394.778C1794.25 395.298 1793.11 396.175 1792.04 397.085C1790.48 398.418 1789.05 399.945 1787.62 401.44C1785.97 403.228 1784.25 404.95 1782.62 406.77C1779.83 409.955 1777 413.108 1774.28 416.325C1768.17 423.442 1762.1 430.56 1756.19 437.807C1756.29 437.71 1756.35 437.612 1756.45 437.515C1756.35 437.645 1756.22 437.775 1756.13 437.905C1756.19 437.807 1756.26 437.742 1756.35 437.645C1756.09 437.97 1755.83 438.295 1755.54 438.62C1755.54 438.62 1755.57 438.555 1755.61 438.555C1755.51 438.652 1755.44 438.75 1755.35 438.847C1755.12 439.14 1754.86 439.432 1754.63 439.725C1754.66 439.66 1754.73 439.627 1754.76 439.562C1754.7 439.627 1754.66 439.692 1754.6 439.757C1754.6 439.757 1754.6 439.757 1754.6 439.79C1754.79 439.562 1754.99 439.302 1755.18 439.075C1754.96 439.367 1754.7 439.66 1754.47 439.92C1754.44 439.952 1754.4 440.017 1754.34 440.05C1753.98 440.44 1753.66 440.862 1753.37 441.252C1753.27 441.382 1753.17 441.512 1753.07 441.61C1752.78 441.967 1752.49 442.292 1752.23 442.65C1752.13 442.747 1752.07 442.845 1751.97 442.942C1751.51 443.365 1751.12 443.885 1750.8 444.405C1749.63 445.835 1748.46 447.265 1747.29 448.695C1746.48 449.702 1745.51 450.71 1744.7 451.847C1744.44 452.14 1744.18 452.465 1743.95 452.822C1743.62 453.212 1743.3 453.602 1742.97 454.025C1742.52 454.48 1742.1 454.967 1741.74 455.487C1741.74 455.487 1741.74 455.52 1741.71 455.552C1741.35 455.942 1741.03 456.365 1740.73 456.787C1740.54 457.015 1740.34 457.242 1740.15 457.502C1740.28 457.339 1740.41 457.209 1740.54 457.047C1740.6 456.982 1740.64 456.917 1740.7 456.852C1740.8 456.755 1740.86 456.625 1740.96 456.527C1740.86 456.625 1740.77 456.755 1740.7 456.852C1740.64 456.95 1740.57 457.014 1740.51 457.112C1738.82 459.224 1737.19 461.369 1735.54 463.482L1725.83 475.962C1722.23 480.609 1718.62 485.257 1715.05 489.937C1704.95 503.001 1694.88 516.066 1684.82 529.163C1683.55 530.788 1682.32 532.446 1681.05 534.071C1680.73 534.428 1680.4 534.818 1680.11 535.241C1680.24 535.078 1680.4 534.883 1680.53 534.721C1680.4 534.851 1680.3 535.013 1680.17 535.143C1680.17 535.176 1680.11 535.208 1680.08 535.241C1679.98 535.371 1679.88 535.501 1679.75 535.631C1679.82 535.566 1679.88 535.501 1679.91 535.403C1679.85 535.468 1679.78 535.566 1679.72 535.631C1679.85 535.468 1679.98 535.338 1680.08 535.176C1679.88 535.436 1679.65 535.696 1679.46 535.923C1679.33 536.053 1679.23 536.216 1679.1 536.346C1679.17 536.281 1679.23 536.183 1679.3 536.118C1679.1 536.346 1678.91 536.606 1678.71 536.833C1678.36 537.223 1678.03 537.613 1677.74 538.036C1677.64 538.166 1677.51 538.296 1677.41 538.426C1677.41 538.393 1677.48 538.361 1677.51 538.328C1677.48 538.361 1677.45 538.426 1677.41 538.458C1677.09 538.816 1676.73 539.206 1676.44 539.628C1676.28 539.791 1676.15 539.953 1676.02 540.148C1675.76 540.441 1675.5 540.766 1675.27 541.091C1675.17 541.221 1675.08 541.351 1674.98 541.481C1674.75 541.741 1674.52 542.033 1674.3 542.293C1673.78 542.846 1673.32 543.463 1672.87 544.016C1672.77 544.113 1672.71 544.211 1672.61 544.308C1672.48 544.471 1672.35 544.601 1672.25 544.731C1671.86 545.121 1671.54 545.543 1671.21 545.998C1671.18 546.063 1671.12 546.128 1671.08 546.193C1670.92 546.421 1670.73 546.616 1670.56 546.843C1670.73 546.648 1670.86 546.486 1671.02 546.291C1670.86 546.486 1670.73 546.681 1670.56 546.843C1670.21 547.233 1669.85 547.656 1669.56 548.078C1669.33 548.371 1669.07 548.663 1668.84 548.956C1668.78 549.021 1668.71 549.118 1668.65 549.183C1668.39 549.443 1668.16 549.736 1667.9 550.028C1667.71 550.256 1667.51 550.483 1667.32 550.743C1666.67 551.458 1666.11 552.238 1665.53 552.986C1665.04 553.473 1664.59 554.026 1664.2 554.611C1664.46 554.286 1664.75 553.928 1665.01 553.603C1664.91 553.701 1664.85 553.831 1664.75 553.928C1664.56 554.156 1664.36 554.383 1664.2 554.611C1664.2 554.611 1664.17 554.676 1664.13 554.708C1664.13 554.708 1664.17 554.643 1664.2 554.611C1664.17 554.676 1664.1 554.708 1664.07 554.773C1664.07 554.773 1663.97 554.838 1663.94 554.903L1664.13 554.676C1664.13 554.676 1664.17 554.611 1664.2 554.578C1664.1 554.708 1663.97 554.838 1663.87 554.968C1663.81 555.033 1663.74 555.131 1663.68 555.196C1663.68 555.228 1663.61 555.261 1663.58 555.293C1663.58 555.326 1663.52 555.358 1663.48 555.391C1663.45 555.456 1663.39 555.521 1663.35 555.553C1663.39 555.521 1663.42 555.456 1663.45 555.423C1663.39 555.488 1663.32 555.586 1663.26 555.651C1662.41 556.626 1661.5 557.568 1660.63 558.51C1658.39 560.948 1656.15 563.385 1653.91 565.823C1649.33 570.828 1644.75 575.833 1639.68 580.35C1637.6 582.138 1635.46 583.893 1633.12 585.323C1632.8 585.485 1632.47 585.615 1632.15 585.713C1631.66 585.713 1631.18 585.713 1630.69 585.713C1630.62 585.063 1630.69 584.445 1630.85 583.795C1630.79 584.185 1630.72 584.575 1630.69 584.965C1631.14 583.21 1631.66 581.488 1632.28 579.765C1635.01 572.68 1638.51 565.92 1641.89 559.128C1644.78 553.311 1647.8 547.526 1650.82 541.773C1657.54 528.903 1664.26 516.034 1671.24 503.294C1679.1 488.929 1687.06 474.597 1695.05 460.297C1698.52 454.057 1702 447.85 1705.47 441.61C1712.16 429.65 1718.98 417.723 1724.79 405.308C1726.06 402.61 1727.19 399.815 1728.17 397.02C1729.17 394.063 1729.73 391.008 1730.38 387.953C1730.54 387.206 1730.8 385.678 1729.89 385.191C1729.17 384.801 1728.43 384.313 1727.62 384.183C1727.39 384.151 1727.16 384.118 1726.9 384.053C1726.35 384.118 1725.83 384.248 1725.31 384.443C1724.34 384.801 1723.33 385.678 1722.61 386.361C1721.97 386.946 1721.41 387.563 1720.83 388.181C1720.15 388.928 1719.34 389.643 1718.56 390.358C1717.74 391.138 1716.93 391.983 1716.12 392.795C1715.44 393.51 1714.76 394.258 1714.07 394.973C1711.61 397.638 1709.14 400.27 1706.7 403C1701.25 409.11 1695.92 415.253 1690.6 421.428C1685.66 427.18 1680.79 432.965 1675.92 438.717C1671.34 444.08 1666.99 449.637 1662.58 455.097C1652.38 467.739 1642.35 480.479 1632.34 493.251C1632.02 493.674 1631.69 494.064 1631.34 494.486C1631.66 494.096 1631.99 493.706 1632.31 493.316C1632.28 493.381 1632.21 493.446 1632.18 493.511C1632.02 493.706 1631.86 493.901 1631.69 494.129C1631.79 493.999 1631.89 493.901 1631.99 493.771C1631.89 493.869 1631.82 493.999 1631.73 494.096C1631.4 494.486 1631.05 494.909 1630.72 495.299C1630.75 495.234 1630.82 495.201 1630.85 495.136C1631.05 494.876 1631.27 494.649 1631.47 494.389C1631.27 494.616 1631.11 494.844 1630.92 495.071C1630.92 495.039 1630.98 495.006 1631.01 494.974C1630.88 495.136 1630.75 495.299 1630.59 495.494C1630.59 495.494 1630.59 495.494 1630.59 495.526C1630.43 495.721 1630.27 495.916 1630.1 496.111C1630.27 495.916 1630.43 495.689 1630.59 495.494C1630.17 495.949 1629.81 496.404 1629.52 496.794C1629.45 496.891 1629.36 496.989 1629.29 497.086C1629.29 497.086 1629.26 497.119 1629.23 497.151C1629.03 497.379 1628.84 497.606 1628.67 497.834C1628.64 497.866 1628.61 497.931 1628.58 497.964C1628.58 497.964 1628.54 497.996 1628.51 498.029C1628.03 498.646 1627.54 499.231 1627.02 499.849C1626.76 500.174 1626.43 500.531 1626.14 500.889C1625.88 501.149 1625.62 501.441 1625.43 501.766C1625.23 501.994 1625.04 502.254 1624.88 502.514C1624.81 502.611 1624.71 502.709 1624.65 502.806C1624.06 503.521 1623.48 504.236 1622.89 504.951C1623.06 504.756 1623.22 504.529 1623.41 504.334C1623.22 504.561 1623.06 504.756 1622.86 504.984C1622.73 505.179 1622.57 505.341 1622.44 505.536C1622.57 505.374 1622.73 505.179 1622.86 505.016C1622.18 505.861 1621.47 506.706 1620.78 507.551C1620.78 507.551 1620.78 507.551 1620.78 507.584C1620.62 507.779 1620.49 507.941 1620.33 508.136C1620.43 508.006 1620.56 507.876 1620.65 507.714C1620.2 508.266 1619.75 508.851 1619.26 509.404C1618.97 509.729 1618.67 510.086 1618.41 510.411C1618.02 510.866 1617.63 511.354 1617.28 511.841C1617.15 511.971 1617.05 512.134 1616.92 512.264C1616.56 512.621 1616.21 513.044 1615.91 513.466C1615.65 513.759 1615.43 514.084 1615.17 514.376C1615.07 514.474 1615 514.571 1614.91 514.701C1614.61 514.994 1614.32 515.351 1614.06 515.676C1613.71 516.099 1613.38 516.521 1613.06 516.944C1612.83 517.236 1612.6 517.496 1612.37 517.789C1612.37 517.789 1612.31 517.854 1612.31 517.886C1612.21 517.984 1612.11 518.114 1612.02 518.211C1612.08 518.146 1612.11 518.081 1612.18 518.016C1612.08 518.114 1612.02 518.211 1611.92 518.341C1611.69 518.634 1611.43 518.926 1611.21 519.219C1611.24 519.186 1611.27 519.154 1611.3 519.089C1608.48 522.501 1605.52 525.816 1602.63 529.163C1598.9 533.518 1595.16 537.906 1591.43 542.261C1590.59 543.236 1589.61 544.178 1588.7 545.121L1581.01 553.083C1578.8 555.358 1576.59 557.666 1574.38 559.94C1571.27 563.158 1567.95 566.148 1564.61 569.105C1562.95 570.535 1561.23 571.9 1559.51 573.265C1557.56 574.793 1555.65 576.32 1553.57 577.62C1552.46 578.173 1551.33 578.693 1550.13 579.05C1550.09 579.05 1550.06 579.05 1550 579.05C1549.93 578.888 1549.9 578.758 1549.83 578.595C1549.83 578.433 1549.83 578.27 1549.83 578.14C1550.09 577.035 1550.42 575.93 1550.78 574.858C1552.66 570.08 1555.13 565.628 1557.53 561.143C1564.35 549.443 1571.36 537.841 1578.51 526.303C1586.59 513.174 1594.71 500.109 1602.96 487.077C1606.37 481.682 1609.61 476.189 1612.96 470.762C1615.39 466.829 1617.76 462.864 1620.07 458.899C1623.54 452.92 1627.05 446.907 1630.53 440.927C1634.16 434.687 1637.83 428.447 1641.05 421.98C1642.73 418.568 1644.81 415.253 1646.05 411.613C1646.63 409.923 1646.96 408.233 1647.05 406.445C1646.96 405.86 1646.86 405.243 1646.73 404.658C1646.6 404.365 1646.5 404.073 1646.37 403.813C1646.08 403.26 1645.79 402.708 1645.49 402.123C1645.07 401.245 1644.13 401.018 1643.29 401.44C1641.44 402.35 1639.55 403.195 1637.8 404.268C1636.83 404.853 1635.95 405.73 1635.07 406.478C1634.29 407.193 1633.51 407.94 1632.77 408.688C1631.14 410.248 1629.55 411.84 1627.93 413.433C1625.43 415.935 1622.93 418.438 1620.46 420.94C1614.84 426.66 1609.32 432.445 1603.77 438.262C1598.57 443.69 1593.51 449.247 1588.38 454.74C1583.34 460.102 1578.54 465.659 1573.64 471.152C1571.98 473.004 1570.26 474.824 1568.63 476.742C1566.56 479.244 1564.45 481.682 1562.37 484.184C1557.14 490.392 1551.85 496.534 1546.72 502.839C1547.04 502.449 1547.37 502.026 1547.69 501.636C1540.58 510.216 1533.5 518.829 1526.45 527.441C1526.49 527.408 1526.52 527.376 1526.55 527.311C1523.37 531.081 1520.25 534.851 1517.1 538.653C1514.93 541.253 1512.75 543.853 1510.58 546.486C1509.73 547.493 1508.89 548.566 1508.01 549.541C1504.18 553.733 1500.35 557.926 1496.52 562.118C1491.35 567.74 1486.19 573.363 1480.47 578.433C1477.84 580.643 1475.15 582.853 1472.19 584.64C1470.96 585.225 1469.73 585.745 1468.43 586.135C1468.04 586.168 1467.71 586.2 1467.36 586.135C1467.36 586.135 1467.32 586.135 1467.29 586.103C1467.16 585.843 1467.03 585.55 1466.97 585.258C1466.97 585.128 1467.03 585.03 1467.06 584.9C1467.06 584.965 1467.03 584.998 1467 585.063C1467.26 584.413 1467.49 583.73 1467.71 583.08C1469.76 577.913 1472.49 573.103 1475.18 568.26C1489.99 543.268 1506 518.991 1521.62 494.519C1526.1 487.532 1530.51 480.479 1534.96 473.459C1538.6 467.707 1542.37 462.052 1546.07 456.332C1549.74 450.71 1553.37 445.087 1557.01 439.432C1559.64 435.305 1562.27 431.21 1564.9 427.082C1565.91 425.522 1566.88 423.962 1567.86 422.37C1569.19 420.193 1570.52 418.015 1571.82 415.773C1573.25 413.335 1574.54 410.833 1575.88 408.33C1576.75 406.868 1577.63 405.438 1578.44 403.943C1579.38 402.22 1579.84 400.368 1580 398.418C1579.97 398.19 1579.94 397.995 1579.9 397.768C1579.97 397.215 1579.81 396.76 1579.45 396.37C1578.9 395.623 1578.57 395.363 1577.66 395.135C1575.58 394.615 1573.54 396.663 1572.3 398.028C1569.64 400.985 1566.91 403.878 1564.25 406.835C1559.22 412.458 1554.44 418.275 1549.61 424.06C1540.77 434.687 1532.3 445.575 1523.82 456.495C1513.63 469.559 1503.46 482.689 1493.33 495.819C1489.63 500.661 1485.83 505.439 1482.03 510.216C1477.84 515.514 1473.72 520.844 1469.47 526.108C1463.78 533.193 1458.1 540.278 1452.39 547.363C1444.14 557.178 1435.73 566.928 1426.09 575.41C1424.69 576.58 1423.29 577.685 1421.9 578.823C1420.4 580.025 1418.88 581.195 1417.25 582.203C1416.67 582.463 1416.08 582.723 1415.47 582.885C1414.91 582.918 1414.36 582.95 1413.81 582.95C1413.81 582.658 1413.75 582.333 1413.75 582.04C1413.75 582.04 1413.75 581.975 1413.75 581.943C1415.76 577.133 1418.42 572.55 1420.95 568C1427.9 556.236 1435.05 544.568 1442.39 533.031C1450.44 520.421 1458.56 507.811 1466.51 495.136C1473.88 483.372 1481.29 471.639 1488.82 459.939C1492.07 454.902 1495.28 449.897 1498.46 444.827C1500.61 441.415 1502.75 437.97 1504.89 434.525C1506.35 432.217 1507.72 429.877 1509.08 427.505C1510.38 425.262 1511.58 422.987 1512.62 420.615C1513.5 418.6 1513.99 416.455 1514.57 414.375C1514.8 413.66 1514.8 412.978 1514.57 412.263C1514.18 411.385 1513.21 411.158 1512.36 411.58C1510.45 412.555 1508.69 413.498 1507.13 414.993C1506.06 416.065 1505.09 417.17 1504.08 418.308L1499.63 423.312C1497.42 425.782 1495.25 428.317 1493.11 430.852C1488.11 436.735 1483.14 442.617 1478.2 448.532C1468.98 459.549 1459.79 470.567 1450.67 481.649C1440.7 493.739 1430.73 505.861 1420.76 517.919C1419.53 519.414 1418.19 520.876 1416.9 522.339C1413.49 526.206 1410.04 530.106 1406.63 533.973C1404.3 536.606 1401.96 539.238 1399.62 541.903C1397.87 543.886 1395.95 545.771 1394.1 547.721C1385.11 557.146 1376.27 566.765 1366.43 575.345C1366.56 575.248 1366.69 575.15 1366.82 575.02C1363.45 577.945 1360.04 580.903 1356.21 583.243C1355.33 583.698 1354.45 584.023 1353.48 584.348C1352.93 584.51 1352.37 584.673 1351.82 584.803C1351.82 584.705 1351.76 584.64 1351.73 584.543C1352.21 583.503 1352.73 582.495 1353.22 581.455C1353.84 580.123 1354.55 578.855 1355.26 577.588C1356.82 574.988 1358.32 572.388 1359.97 569.853C1361.89 566.895 1363.77 563.905 1365.72 560.98C1370.27 554.123 1374.91 547.363 1379.52 540.571C1387.96 528.253 1396.41 515.969 1404.85 503.651C1412.35 492.699 1419.82 481.714 1427.22 470.697C1431.54 464.262 1435.92 457.892 1440.15 451.392C1444.63 444.47 1449.14 437.515 1453.62 430.592C1457.42 424.742 1460.93 418.73 1464.37 412.653C1465.8 410.28 1467.32 407.973 1468.3 405.373C1468.59 404.658 1468.85 403.91 1469.01 403.163C1469.11 402.48 1469.21 401.765 1469.3 401.05C1469.21 400.498 1469.14 399.945 1469.01 399.393C1468.82 398.905 1468.59 398.418 1468.36 397.93C1467.71 396.468 1466.12 397.215 1465.18 397.8C1463.26 399.003 1461.48 400.173 1459.82 401.7C1458.59 402.838 1457.42 404.04 1456.25 405.243L1451.41 410.28C1448.95 412.848 1446.61 415.513 1444.17 418.145C1439.53 423.182 1435.05 428.382 1430.53 433.517C1421.12 444.177 1411.73 454.902 1402.58 465.789C1391.89 478.464 1381.24 491.204 1370.66 503.976C1361.37 515.156 1352.15 526.401 1342.89 537.613C1339.68 541.513 1336.33 545.348 1333.05 549.216L1320.49 564.003C1319.32 565.4 1317.96 566.668 1316.69 567.968C1313.77 570.99 1310.88 574.045 1307.95 577.1C1305.68 579.473 1303.41 581.845 1301.13 584.25C1300.06 585.355 1298.93 586.428 1297.82 587.5C1294.67 590.555 1291.43 593.545 1288.11 596.437C1285.26 598.875 1282.37 601.215 1279.41 603.49C1276.23 605.927 1272.85 608.007 1269.41 610.022C1268.96 610.217 1268.53 610.412 1268.08 610.542C1268.05 610.542 1267.98 610.542 1267.95 610.542C1267.85 610.477 1267.75 610.412 1267.66 610.347C1267.62 610.282 1267.56 610.217 1267.53 610.152C1267.69 609.437 1267.88 608.755 1268.11 608.072C1269.6 604.465 1271.49 601.117 1273.4 597.737C1281.23 585.03 1289.48 572.648 1297.66 560.168C1305.84 547.753 1313.86 535.208 1321.85 522.664C1328.41 512.329 1334.84 501.929 1341.59 491.691C1345.36 486.004 1349.13 480.317 1352.89 474.629C1355.46 470.762 1357.99 466.927 1360.53 463.059C1361.47 461.629 1362.41 460.199 1363.32 458.802C1364.65 456.755 1365.95 454.707 1367.18 452.627C1368.29 450.742 1369.26 448.825 1370.23 446.875C1370.62 446.095 1371.05 444.795 1370.66 443.917C1370.3 443.105 1369.49 443.007 1368.74 443.3C1368.16 443.495 1367.6 443.755 1367.05 444.112C1366.53 444.567 1365.98 445.022 1365.49 445.51C1365.01 446.095 1364.52 446.68 1364.06 447.297C1363.74 447.687 1363.45 448.11 1363.16 448.5C1362.21 449.702 1361.3 450.905 1360.43 452.14C1358.84 454.415 1357.31 456.69 1355.78 458.997C1352.28 464.327 1348.87 469.689 1345.39 475.019C1344.91 475.702 1344.58 476.449 1344.35 477.229C1344.22 477.847 1344.06 478.757 1344.52 479.342C1341.46 483.957 1338.41 488.539 1335.36 493.154C1333.87 495.396 1332.47 497.704 1331.01 499.979C1328.35 504.204 1325.68 508.396 1322.99 512.621C1319.12 518.699 1315.23 524.744 1311.36 530.788C1303.47 543.138 1295.39 555.391 1287.3 567.61C1283.54 573.33 1279.77 579.018 1276.1 584.738C1274.02 587.955 1272.01 591.173 1269.99 594.422C1269.09 595.885 1268.24 597.347 1267.43 598.842C1265.9 601.572 1264.38 604.237 1263.14 607.13C1262.2 609.307 1261.39 611.55 1261.1 613.89C1261.06 614.182 1261.03 614.475 1261 614.767C1261.06 615.352 1261.13 615.905 1261.23 616.457H1261.49V616.815ZM1267.72 610.412C1267.72 610.152 1267.75 609.925 1267.82 609.665L1267.72 610.412ZM1267.72 610.672C1267.72 610.672 1267.72 610.802 1267.75 610.867C1267.75 610.802 1267.75 610.737 1267.75 610.672H1267.72ZM1267.72 611.062C1267.72 611.16 1267.72 611.257 1267.75 611.355C1267.75 611.257 1267.72 611.16 1267.69 611.062H1267.72ZM1367.28 575.118C1367.28 575.118 1367.47 574.955 1367.57 574.858C1367.47 574.955 1367.38 575.02 1367.28 575.118ZM1426.12 575.8C1426.12 575.8 1426.31 575.638 1426.44 575.54C1426.34 575.638 1426.25 575.703 1426.12 575.8ZM1466.67 586.46C1466.77 586.233 1466.84 586.005 1466.93 585.745C1466.84 585.973 1466.77 586.2 1466.67 586.46ZM1549.31 579.245C1549.31 579.245 1549.51 579.31 1549.64 579.343C1549.54 579.343 1549.44 579.278 1549.31 579.245ZM1549.74 578.14C1549.74 578.14 1549.8 578.465 1549.8 578.628C1549.77 578.465 1549.74 578.303 1549.74 578.14ZM1550.39 579.375C1550.39 579.375 1550.65 579.31 1550.74 579.31C1550.61 579.343 1550.48 579.375 1550.39 579.375ZM1551.1 430.235C1551.1 430.235 1551.26 430.007 1551.36 429.91C1551.49 429.78 1551.59 429.617 1551.72 429.487C1551.52 429.747 1551.3 429.975 1551.1 430.235ZM1573.12 402.935C1573.18 403.13 1573.21 403.325 1573.21 403.52C1573.18 403.325 1573.15 403.13 1573.12 402.935ZM1575.32 409.695C1575.45 409.468 1575.58 409.24 1575.75 408.98C1575.62 409.208 1575.49 409.435 1575.32 409.695ZM1610.88 519.999C1611.04 519.771 1611.24 519.544 1611.4 519.349C1611.21 519.576 1611.04 519.804 1610.85 520.031L1610.88 519.999ZM1611.5 519.251C1611.72 518.959 1611.98 518.634 1612.24 518.341C1611.98 518.634 1611.76 518.959 1611.5 519.251ZM1614.35 523.411C1614.58 523.151 1614.81 522.859 1615.04 522.566C1614.94 522.664 1614.87 522.761 1614.78 522.859C1614.78 522.826 1614.84 522.794 1614.87 522.761C1614.68 522.989 1614.48 523.216 1614.32 523.444L1614.35 523.411ZM1615.39 522.176C1615.39 522.176 1615.43 522.111 1615.46 522.079C1615.46 522.079 1615.43 522.144 1615.39 522.176ZM1615.49 522.046C1615.49 522.046 1615.59 521.916 1615.62 521.884C1615.62 521.884 1615.62 521.884 1615.62 521.851C1615.56 521.916 1615.52 521.981 1615.46 522.046H1615.49ZM1616.14 521.234C1616.14 521.234 1616.14 521.234 1616.14 521.266V521.234ZM1616.14 521.234C1616.14 521.234 1616.17 521.201 1616.21 521.169C1616.21 521.169 1616.21 521.169 1616.17 521.201L1616.14 521.234ZM1631.6 494.649C1631.6 494.649 1631.6 494.616 1631.63 494.584C1631.63 494.584 1631.63 494.616 1631.6 494.649ZM1640.36 411.873C1640.43 412.1 1640.46 412.328 1640.46 412.555C1640.43 412.328 1640.4 412.1 1640.36 411.873ZM1662.48 557.016C1662.74 556.691 1663 556.366 1663.26 556.041C1663.26 556.041 1663.26 556.041 1663.26 556.073C1663 556.398 1662.74 556.691 1662.51 556.983L1662.48 557.016ZM1666.24 560.07C1666.24 560.07 1666.31 559.973 1666.37 559.94C1666.37 559.94 1666.37 559.973 1666.34 560.005C1666.34 560.005 1666.31 560.07 1666.28 560.103L1666.24 560.07ZM1673.26 543.821C1673.26 543.821 1673.45 543.561 1673.55 543.463C1673.45 543.593 1673.36 543.723 1673.26 543.821ZM1676.02 548.111C1676.15 547.948 1676.28 547.786 1676.41 547.623C1676.28 547.786 1676.12 547.981 1675.99 548.143L1676.02 548.111ZM1680.63 534.818C1680.63 534.818 1680.66 534.753 1680.69 534.753C1680.69 534.753 1680.69 534.721 1680.73 534.688C1680.73 534.688 1680.69 534.721 1680.66 534.753C1680.66 534.753 1680.66 534.786 1680.63 534.818ZM1680.73 534.688C1680.73 534.688 1680.92 534.461 1681.02 534.331C1680.99 534.396 1680.92 534.428 1680.89 534.493C1680.82 534.558 1680.79 534.623 1680.73 534.688ZM1681.31 533.973C1681.31 533.973 1681.41 533.843 1681.47 533.778C1681.41 533.843 1681.38 533.908 1681.31 533.973ZM1722.06 398.938C1722.06 398.938 1722.16 398.678 1722.19 398.58C1722.16 398.71 1722.1 398.84 1722.06 398.938ZM1723.46 532.218C1723.46 532.218 1723.56 532.218 1723.59 532.251C1723.59 532.251 1723.49 532.251 1723.46 532.218ZM1723.46 534.233C1723.46 534.233 1723.56 534.006 1723.59 533.876C1723.56 534.006 1723.49 534.103 1723.46 534.233ZM1724.17 532.381C1724.37 532.348 1724.53 532.316 1724.73 532.283C1724.53 532.381 1724.34 532.413 1724.17 532.413V532.381ZM1730.64 519.414C1730.64 519.414 1730.8 519.154 1730.86 519.024C1730.8 519.154 1730.7 519.284 1730.64 519.414ZM1743.07 461.857C1743.07 461.857 1743.2 461.694 1743.27 461.629C1743.33 461.564 1743.36 461.499 1743.43 461.434C1743.3 461.564 1743.2 461.727 1743.07 461.857ZM1756.06 438.327C1756.06 438.327 1756.16 438.23 1756.19 438.165C1756.16 438.23 1756.09 438.262 1756.06 438.327ZM1758.66 442.812C1758.66 442.812 1758.69 442.78 1758.72 442.747C1758.79 442.65 1758.85 442.585 1758.92 442.487C1758.89 442.552 1758.82 442.585 1758.79 442.65C1758.85 442.552 1758.95 442.455 1759.02 442.39C1759.11 442.292 1759.21 442.162 1759.28 442.065C1759.18 442.162 1759.11 442.26 1759.02 442.357C1759.05 442.292 1759.11 442.26 1759.15 442.195C1759.15 442.195 1759.11 442.26 1759.08 442.26C1759.05 442.292 1759.02 442.357 1758.98 442.39C1758.89 442.52 1758.76 442.65 1758.66 442.812ZM1827.34 457.015C1827.34 457.015 1827.5 456.755 1827.56 456.625C1827.5 456.755 1827.4 456.885 1827.34 457.015ZM1878.64 357.793C1878.64 357.793 1878.93 357.533 1879.06 357.436C1878.93 357.566 1878.77 357.696 1878.64 357.793ZM1880.39 358.963C1880.46 358.768 1880.52 358.573 1880.62 358.378C1880.56 358.573 1880.49 358.768 1880.39 358.963ZM1880.85 358.021C1880.88 357.696 1880.95 357.371 1880.98 357.046C1880.98 357.371 1880.91 357.696 1880.85 358.021ZM1880.91 356.233C1880.91 356.331 1880.91 356.428 1880.95 356.526C1880.95 356.428 1880.91 356.331 1880.88 356.266L1880.91 356.233ZM1786.88 418.048C1786.88 418.048 1786.88 418.048 1786.88 418.08V418.048ZM1758.95 442.455C1758.95 442.455 1758.95 442.422 1758.98 442.39C1758.98 442.422 1758.92 442.455 1758.89 442.487C1758.89 442.487 1758.92 442.422 1758.95 442.39V442.455ZM1758.33 443.202C1758.33 443.202 1758.17 443.365 1758.11 443.462C1758.04 443.527 1758.01 443.592 1757.94 443.657C1758.07 443.495 1758.2 443.365 1758.3 443.202H1758.33ZM1756.19 438.165C1756.19 438.165 1756.26 438.067 1756.32 438.035C1756.29 438.067 1756.26 438.132 1756.22 438.165C1756.29 438.1 1756.35 438.002 1756.42 437.937C1756.22 438.197 1756 438.457 1755.8 438.717C1755.9 438.62 1755.96 438.522 1756.06 438.425C1755.96 438.555 1755.87 438.652 1755.77 438.782C1755.77 438.782 1755.7 438.847 1755.7 438.88C1755.87 438.652 1756.06 438.425 1756.22 438.23L1756.19 438.165ZM1755.61 438.88C1755.61 438.88 1755.7 438.782 1755.74 438.717C1755.74 438.717 1755.74 438.717 1755.74 438.685C1755.67 438.75 1755.64 438.815 1755.57 438.88H1755.61ZM1755.54 438.977C1755.54 438.977 1755.67 438.815 1755.74 438.75C1755.7 438.782 1755.67 438.847 1755.64 438.88C1755.64 438.88 1755.61 438.945 1755.57 438.945C1755.57 438.945 1755.61 438.912 1755.64 438.88C1755.41 439.14 1755.18 439.432 1754.96 439.692C1755.15 439.465 1755.35 439.205 1755.54 438.977ZM1740.6 457.274C1740.6 457.274 1740.73 457.112 1740.83 457.015C1740.83 457.015 1740.73 457.144 1740.67 457.209C1740.54 457.372 1740.41 457.534 1740.28 457.664C1740.21 457.729 1740.15 457.794 1740.12 457.892C1740.28 457.697 1740.44 457.502 1740.6 457.307V457.274ZM1680.17 535.436C1680.11 535.501 1680.08 535.566 1680.01 535.631C1680.08 535.566 1680.11 535.501 1680.17 535.468V535.436ZM1677.84 538.296C1677.84 538.296 1677.67 538.491 1677.58 538.621C1677.67 538.523 1677.74 538.393 1677.84 538.296ZM1667.67 558.413C1667.67 558.413 1667.67 558.446 1667.64 558.478C1667.54 558.576 1667.48 558.706 1667.38 558.803C1667.32 558.868 1667.25 558.965 1667.19 559.031C1667.35 558.836 1667.51 558.608 1667.67 558.413ZM1667.19 559.031C1667.19 559.031 1666.99 559.29 1666.89 559.388C1666.99 559.258 1667.09 559.128 1667.19 559.031ZM1665.79 560.72C1665.79 560.72 1665.66 560.883 1665.59 560.948C1665.66 560.883 1665.72 560.785 1665.79 560.72ZM1664.1 555.098L1664.17 555.033C1664.17 555.033 1664.13 555.066 1664.1 555.098ZM1635.36 497.801C1635.36 497.801 1635.49 497.639 1635.56 497.541C1635.46 497.671 1635.33 497.801 1635.23 497.964C1635.27 497.899 1635.33 497.866 1635.36 497.801ZM1635.59 497.509C1635.59 497.509 1635.49 497.639 1635.43 497.704C1635.43 497.704 1635.36 497.769 1635.36 497.801C1635.33 497.834 1635.3 497.899 1635.27 497.931C1635.14 498.061 1635.04 498.224 1634.91 498.354C1635.01 498.224 1635.14 498.094 1635.23 497.964C1635.04 498.191 1634.84 498.451 1634.65 498.679C1634.97 498.289 1635.3 497.899 1635.59 497.509ZM1634.32 499.069C1634.32 499.069 1634.29 499.134 1634.26 499.134C1634.26 499.134 1634.29 499.101 1634.32 499.069ZM1634.26 499.134C1634.26 499.134 1634.26 499.134 1634.23 499.166C1634.23 499.166 1634.26 499.166 1634.29 499.134H1634.26ZM1634.23 499.166C1634.19 499.199 1634.16 499.231 1634.13 499.296C1634.16 499.264 1634.19 499.231 1634.23 499.166ZM1634.23 499.166C1634.23 499.166 1634.07 499.361 1633.97 499.459C1633.87 499.556 1633.81 499.686 1633.71 499.784C1633.87 499.589 1634.07 499.361 1634.23 499.166ZM1631.01 495.429C1631.01 495.429 1630.98 495.461 1630.95 495.494C1630.95 495.526 1630.88 495.559 1630.85 495.624C1630.92 495.559 1630.95 495.494 1631.01 495.429ZM1630.66 495.851C1630.66 495.851 1630.79 495.721 1630.82 495.656C1630.75 495.721 1630.69 495.786 1630.62 495.884L1630.66 495.851ZM1622.86 505.374C1622.86 505.374 1622.86 505.374 1622.86 505.341C1622.86 505.341 1622.86 505.374 1622.83 505.406L1622.86 505.374ZM1620.75 507.941C1620.75 507.941 1620.75 507.941 1620.75 507.909C1620.91 507.714 1621.08 507.486 1621.24 507.291C1621.01 507.551 1620.82 507.811 1620.59 508.071C1620.62 508.039 1620.65 507.974 1620.72 507.941H1620.75ZM1616.27 521.071C1616.27 521.071 1616.27 521.039 1616.3 521.006L1616.27 521.071ZM1615.1 522.501C1615.07 522.566 1615 522.599 1614.97 522.664C1615 522.599 1615.07 522.534 1615.1 522.501ZM1615.04 522.599C1614.87 522.794 1614.71 522.989 1614.52 523.216C1614.68 523.021 1614.84 522.826 1615.04 522.599ZM1614.52 523.216C1614.52 523.216 1614.48 523.249 1614.45 523.281C1614.45 523.281 1614.48 523.216 1614.52 523.216ZM1614.45 523.281C1614.32 523.444 1614.16 523.606 1614.03 523.801C1614.16 523.639 1614.29 523.476 1614.45 523.281ZM1529.28 532.121L1528.76 532.738C1528.92 532.543 1529.08 532.348 1529.28 532.121Z" fill="#D1EF53"/>
<path d="M-463.513 269.815L-463.026 270.627C-462.734 271.115 -462.344 271.505 -461.824 271.732C-461.175 272.187 -460.136 271.96 -459.422 271.797C-458.48 271.57 -457.733 271.277 -456.856 270.822C-455.915 270.335 -455.038 269.782 -454.129 269.23C-452.862 268.45 -451.531 267.735 -450.265 266.922C-446.206 264.355 -442.504 261.235 -438.835 258.212C-434.678 254.8 -430.684 251.16 -426.788 247.487C-419.871 240.988 -413.442 233.935 -406.883 227.078C-405.292 225.42 -403.603 223.828 -402.109 222.04C-399.706 219.213 -397.304 216.385 -394.901 213.558C-389.965 207.741 -384.932 202.021 -380.094 196.138C-360.481 172.349 -340.836 148.591 -320.963 124.997C-312.098 114.499 -303.104 104.132 -294.012 93.8297C-289.044 88.2073 -284.043 82.5849 -279.01 76.9625C-276.737 74.4275 -274.399 71.9576 -272.093 69.4226C-271.119 68.3501 -270.08 67.3426 -269.074 66.2701C-267.19 64.3202 -265.339 62.3377 -263.391 60.4852C-263.099 60.2577 -262.774 60.0302 -262.449 59.8027C-262.644 60.2577 -262.872 60.7127 -263.099 61.1352C-263.911 62.4677 -264.722 63.8002 -265.502 65.1652C-266.411 66.7576 -267.255 68.3501 -268.164 69.9426C-273.587 79.1075 -279.529 87.9798 -285.309 96.9172C-288.914 102.475 -292.583 107.935 -296.285 113.459C-304.468 125.647 -312.65 137.834 -320.963 149.956C-329.73 162.761 -338.498 175.566 -347.297 188.338C-350.934 193.636 -354.604 198.901 -358.175 204.231C-360.319 207.481 -362.559 210.666 -364.67 213.948C-366.553 216.905 -368.566 219.798 -370.352 222.788C-371.586 224.868 -372.82 226.948 -374.054 229.028C-375.775 231.888 -377.171 234.878 -378.697 237.835C-379.022 238.615 -379.347 239.395 -379.607 240.175C-379.769 240.923 -379.899 241.638 -379.996 242.385C-379.931 243.003 -379.866 243.588 -379.736 244.173C-379.542 244.758 -379.347 245.343 -379.152 245.928C-378.795 246.967 -377.756 246.837 -376.944 246.61C-375.775 246.285 -374.638 246.025 -373.469 245.733C-372.333 245.44 -371.326 244.953 -370.287 244.4C-368.274 243.328 -366.423 242.06 -364.605 240.695C-362.786 239.33 -361.098 237.803 -359.344 236.34C-357.039 234.423 -354.831 232.44 -352.623 230.425C-348.337 226.493 -344.213 222.398 -340.186 218.173C-336.647 214.468 -333.107 210.763 -329.6 207.058C-327.522 204.848 -325.314 202.736 -323.333 200.461C-317.748 194.188 -312.196 187.851 -306.611 181.578C-305.182 179.953 -303.721 178.393 -302.324 176.704C-299.889 173.746 -297.454 170.789 -295.018 167.831C-284.887 155.546 -274.724 143.229 -264.593 130.912C-259.917 125.257 -255.176 119.634 -250.467 114.012C-246.279 109.007 -242.155 103.97 -237.933 99.0297C-234.686 95.1947 -231.439 91.3273 -228.127 87.5248C-226.406 85.5424 -224.685 83.4949 -222.932 81.5449C-221.828 80.3099 -220.756 79.075 -219.684 77.84C-219.944 78.3275 -220.236 78.8475 -220.496 79.3349C-224.912 86.9073 -229.718 94.2847 -234.362 101.695C-238.583 108.422 -242.967 115.052 -247.285 121.714C-251.214 127.824 -255.046 134.064 -258.942 140.239C-262.579 146.056 -266.249 151.809 -269.918 157.594C-277.873 170.139 -285.926 182.651 -293.784 195.293C-297.259 200.851 -300.766 206.441 -304.11 212.095C-306.221 215.67 -308.332 219.245 -310.377 222.853C-311.416 224.738 -312.488 226.59 -313.462 228.475C-314.599 230.62 -315.605 232.863 -316.644 235.04C-317.164 236.145 -317.554 237.348 -317.846 238.55C-318.203 240.045 -317.911 241.475 -317.683 242.97C-317.554 243.783 -317.391 244.823 -316.255 244.79C-315.216 244.725 -314.176 244.725 -313.137 244.66C-312.163 244.595 -311.157 244.205 -310.247 243.848C-308.267 243.035 -306.416 241.703 -304.727 240.435C-300.603 237.315 -296.674 233.903 -292.94 230.36C-285.342 223.178 -278.458 215.28 -271.736 207.286C-265.891 200.363 -260.306 193.181 -254.591 186.096C-250.825 181.383 -247.09 176.671 -243.356 171.926C-238.875 166.239 -234.329 160.616 -229.913 154.864C-211.437 130.912 -193.058 106.862 -173.997 83.3649C-170.133 78.7175 -166.301 74.1025 -162.34 69.5201C-160.456 67.3101 -158.508 65.1652 -156.56 62.9877C-155.813 62.1427 -155.066 61.3302 -154.287 60.5177C-154.027 60.2577 -153.8 59.9977 -153.54 59.7377C-153.8 60.1927 -154.092 60.6802 -154.319 61.1677C-155.423 63.2152 -156.462 65.2627 -157.631 67.3101C-162.827 76.15 -168.477 84.6974 -173.997 93.3422C-177.699 99.1597 -181.498 104.88 -185.265 110.664C-188.804 116.092 -192.343 121.519 -195.818 127.012C-199.779 133.284 -203.741 139.557 -207.735 145.829C-216.242 159.186 -224.782 172.511 -233.355 185.836C-236.959 191.458 -240.499 197.113 -244.006 202.801C-248.162 209.528 -252.286 216.255 -256.15 223.178C-256.962 224.64 -257.774 226.103 -258.585 227.565C-260.469 230.913 -261.995 234.455 -263.294 238.063C-263.878 239.558 -264.56 241.085 -264.625 242.678C-264.69 244.043 -264.463 245.277 -263.781 246.447C-263.553 246.837 -263.229 247.195 -262.839 247.487C-262.579 247.552 -262.32 247.65 -262.06 247.715C-261.605 247.91 -261.086 247.975 -260.599 247.877C-259.722 247.877 -258.748 247.52 -257.903 247.292C-256.962 247.032 -256.085 246.61 -255.208 246.253C-251.734 244.758 -248.714 242.223 -245.792 239.85C-242.382 237.12 -239.167 234.098 -236.083 230.978C-230.108 224.998 -224.49 218.628 -218.775 212.388C-217.346 210.828 -215.853 209.333 -214.521 207.708C-212.671 205.466 -210.787 203.223 -208.936 201.013C-204.358 195.488 -199.682 190.028 -195.168 184.471C-195.331 184.666 -195.493 184.861 -195.656 185.056C-188.414 176.314 -181.238 167.571 -174.062 158.764C-174.387 159.154 -174.711 159.576 -175.036 159.966C-169.808 153.661 -164.483 147.421 -159.223 141.149C-157.502 139.102 -155.813 136.957 -154.027 134.942C-151.722 132.342 -149.384 129.774 -147.046 127.174C-142.337 121.909 -137.661 116.579 -132.823 111.379C-127.66 105.855 -122.53 100.297 -117.302 94.8047C-112.658 89.9298 -107.982 85.0549 -103.274 80.2449C-101.358 78.2625 -99.41 76.28 -97.4617 74.33C-94.4419 71.3726 -91.487 68.2851 -88.3697 65.4251C-87.8177 64.9702 -87.2332 64.5477 -86.6487 64.1577C-86.1617 63.9302 -85.6746 63.7027 -85.1875 63.4752C-85.1226 63.5727 -85.0901 63.6702 -85.0251 63.7677C-84.8628 64.0277 -84.7654 64.3202 -84.668 64.6127C-84.668 64.7752 -84.668 64.9052 -84.668 65.0677C-84.7654 65.5877 -84.8953 66.0751 -85.0576 66.5626C-85.8694 68.4476 -86.8435 70.2351 -87.8502 72.0551C-88.9867 74.135 -89.9933 76.345 -91.0973 78.4575C-93.4677 83.0074 -96.1304 87.4273 -98.6632 91.8798C-102.69 98.8022 -106.716 105.757 -110.743 112.679C-114.379 118.952 -118.276 125.062 -122.075 131.204C-129.349 143.067 -136.85 154.766 -144.156 166.596C-148.215 173.194 -152.274 179.791 -156.333 186.421C-159.969 192.336 -163.606 198.251 -167.113 204.231C-169.094 207.676 -171.204 211.088 -173.088 214.565C-176.205 220.318 -179.387 226.038 -181.206 232.375C-181.498 233.448 -181.855 234.65 -181.888 235.755C-181.888 236.113 -181.888 236.47 -181.888 236.828C-181.79 237.413 -181.693 237.965 -181.595 238.55C-181.433 239.33 -180.913 239.85 -180.394 240.403C-180.134 240.468 -179.874 240.565 -179.615 240.63C-179.16 240.793 -178.673 240.825 -178.153 240.695C-176.238 240.5 -174.387 239.525 -172.731 238.615C-170.393 237.38 -168.315 235.82 -166.269 234.163C-162.372 231.075 -158.541 227.858 -154.871 224.51C-152.761 222.56 -150.65 220.61 -148.669 218.563C-144.61 214.338 -140.519 210.113 -136.46 205.888C-134.252 203.613 -132.044 201.371 -129.998 198.998L-117.691 184.633C-115.256 181.806 -112.788 178.978 -110.418 176.119C-110.32 176.021 -110.223 175.891 -110.158 175.794C-110.061 175.664 -109.931 175.534 -109.833 175.404C-109.444 175.014 -109.087 174.591 -108.794 174.104C-108.794 174.104 -108.794 174.071 -108.762 174.039C-108.664 173.909 -108.535 173.779 -108.437 173.616C-108.535 173.746 -108.664 173.876 -108.762 174.006C-108.632 173.844 -108.502 173.681 -108.372 173.551C-108.015 173.161 -107.658 172.771 -107.366 172.316C-107.366 172.284 -107.301 172.251 -107.301 172.219C-107.008 171.894 -106.749 171.536 -106.456 171.211C-106.099 170.854 -105.807 170.464 -105.515 170.074C-105.385 169.911 -105.255 169.781 -105.125 169.619C-104.8 169.229 -104.476 168.839 -104.151 168.449C-103.794 168.091 -103.501 167.701 -103.209 167.311C-103.079 167.149 -102.949 167.019 -102.852 166.856C-102.008 165.816 -101.163 164.809 -100.319 163.769C-100.644 164.159 -100.969 164.581 -101.293 164.971C-100.254 163.704 -99.2477 162.436 -98.2086 161.201C-98.5333 161.591 -98.858 162.014 -99.1827 162.404C-98.6307 161.721 -98.0787 161.071 -97.5267 160.389C-97.4942 160.324 -97.4293 160.291 -97.3968 160.226C-96.8773 159.739 -96.4227 159.154 -96.033 158.569C-96.033 158.569 -96.0005 158.536 -95.968 158.504C-95.1887 157.561 -94.4094 156.619 -93.6626 155.676C-93.143 155.189 -92.6884 154.636 -92.3312 154.051C-92.2014 153.889 -92.1039 153.759 -91.9741 153.596C-91.7792 153.336 -91.5519 153.076 -91.3571 152.816C-91.4545 152.946 -91.5519 153.076 -91.6818 153.206C-91.487 152.979 -91.2921 152.751 -91.0973 152.491C-91.0324 152.426 -90.9999 152.361 -90.935 152.296C-90.935 152.296 -90.9674 152.329 -90.9999 152.361C-90.9999 152.361 -90.9674 152.329 -90.935 152.296C-90.87 152.199 -90.7726 152.101 -90.7077 152.004C-90.7401 152.069 -90.8051 152.101 -90.8376 152.166C-90.8376 152.166 -90.8376 152.166 -90.8051 152.134C-90.5453 151.809 -90.2856 151.484 -90.0258 151.159C-90.2531 151.451 -90.5128 151.744 -90.7401 152.036C-90.6427 151.906 -90.5128 151.776 -90.4154 151.646C-89.9933 151.126 -89.6036 150.639 -89.1815 150.119C-89.2465 150.184 -89.2789 150.249 -89.3438 150.314C-89.4088 150.379 -89.4413 150.444 -89.5062 150.509C-89.4738 150.476 -89.4413 150.411 -89.3763 150.379C-89.4413 150.476 -89.5387 150.574 -89.6036 150.671C-89.4413 150.476 -89.2465 150.249 -89.0841 150.054C-88.9867 149.956 -88.9217 149.859 -88.8243 149.729C-88.8893 149.826 -88.9542 149.891 -89.0191 149.989C-85.9993 146.251 -83.0444 142.417 -80.0895 138.614C-76.0305 133.479 -72.0041 128.344 -67.9776 123.209C-65.1201 119.569 -62.1328 115.962 -59.2103 112.354C-55.8008 108.097 -52.3588 103.872 -48.9493 99.6471C-41.6108 90.9373 -34.2397 82.2924 -26.8038 73.68C-23.0695 69.3576 -19.2704 65.0677 -15.4388 60.7777C-13.8152 58.9577 -12.1591 57.1703 -10.5031 55.3828C-9.5289 54.3428 -8.52228 53.2703 -7.54816 52.2303C-6.24927 50.8329 -4.88547 49.5004 -3.4892 48.1679C-2.83978 47.5504 -2.22284 46.8679 -1.57339 46.2504C-2.02798 48.4604 -2.51505 50.6379 -3.22943 52.7828C-4.91794 57.1378 -6.96368 61.3302 -9.0094 65.4902C-11.4123 70.4301 -14.0749 75.24 -16.7376 80.0499C-18.9132 83.9824 -21.0888 87.9473 -23.2968 91.8473C-27.1285 98.7372 -30.9926 105.595 -34.8242 112.484C-42.4225 126.102 -49.9884 139.719 -57.4893 153.401C-64.4382 166.109 -71.2248 178.881 -77.9464 191.751C-81.2585 198.121 -84.5706 204.523 -87.8502 210.958C-91.2272 217.523 -94.4744 224.218 -97.3643 231.043C-98.0787 232.765 -98.7606 234.488 -99.3776 236.275C-99.9296 237.77 -100.352 239.363 -100.774 240.923C-100.904 241.703 -101.001 242.483 -101.099 243.263C-101.099 244.075 -100.969 244.92 -100.806 245.733C-100.644 246.675 -100.514 247.487 -99.3776 247.552C-98.6956 247.617 -97.9813 247.65 -97.2669 247.715C-96.2928 247.78 -95.2212 247.39 -94.3445 247.065C-93.6626 246.772 -93.0131 246.415 -92.3637 246.058C-91.3896 245.505 -90.5128 244.92 -89.6361 244.27C-86.5188 241.963 -83.5315 239.395 -80.7065 236.73C-77.7191 233.935 -74.9265 230.945 -72.1664 227.923C-69.2115 224.738 -66.2891 221.553 -63.3666 218.335C-62.0028 216.84 -60.6066 215.378 -59.3077 213.85C-59.3077 213.85 -59.2428 213.785 -59.2103 213.753C-58.8206 213.363 -58.4635 212.94 -58.1712 212.453C-58.0413 212.29 -57.9115 212.128 -57.7816 211.998C-57.7816 212.031 -57.8465 212.063 -57.879 212.095C-57.8141 211.998 -57.7166 211.901 -57.6517 211.803C-57.5867 211.738 -57.5218 211.641 -57.4568 211.576C-57.4568 211.576 -57.3919 211.511 -57.3919 211.478C-57.327 211.381 -57.2296 211.283 -57.1646 211.218C-57.2296 211.283 -57.2945 211.381 -57.3594 211.446C-57.1646 211.218 -56.9698 210.991 -56.7749 210.731C-56.4178 210.373 -56.093 209.951 -55.8008 209.528C-55.6709 209.366 -55.541 209.236 -55.4436 209.073C-55.1189 208.748 -54.8267 208.358 -54.5344 207.968C-54.5344 207.936 -54.4695 207.903 -54.437 207.838C-54.3071 207.676 -54.1772 207.546 -54.0474 207.383C-53.7876 207.091 -53.5603 206.798 -53.333 206.473C-53.2356 206.343 -53.1057 206.181 -52.9758 206.051C-52.7485 205.758 -52.5212 205.498 -52.2939 205.206C-51.8068 204.686 -51.3847 204.133 -50.9626 203.581C-50.8326 203.418 -50.7028 203.256 -50.5404 203.093C-50.4105 202.963 -50.3131 202.833 -50.2482 202.736C-49.891 202.378 -49.5663 201.956 -49.274 201.501C-49.2091 201.403 -49.1442 201.338 -49.0792 201.241C-48.9169 201.046 -48.7545 200.851 -48.5921 200.656C-48.2025 200.266 -47.8453 199.811 -47.5206 199.323C-47.2933 199.031 -47.066 198.771 -46.8387 198.478C-46.8062 198.413 -46.7413 198.348 -46.7088 198.316C-46.449 198.056 -46.1892 197.763 -45.9619 197.471C-45.7671 197.243 -45.5723 196.983 -45.3775 196.756C-44.728 196.041 -44.1435 195.228 -43.5266 194.481C-43.0395 193.993 -42.5849 193.441 -42.2277 192.888C-42.3251 193.018 -42.4225 193.148 -42.5524 193.278C-42.455 193.148 -42.3576 193.018 -42.2277 192.888L-42.1303 192.758C-42.0004 192.596 -41.8705 192.433 -41.7406 192.303C-41.7406 192.271 -41.6757 192.238 -41.6432 192.206C-41.6432 192.173 -41.5783 192.141 -41.5458 192.108C-41.4484 191.978 -41.3185 191.848 -41.2211 191.686C-40.9613 191.393 -40.734 191.068 -40.4742 190.776C-40.5067 190.808 -40.5392 190.873 -40.5717 190.906C-38.9481 188.891 -37.3895 186.811 -35.8308 184.763C-32.5512 180.538 -29.2716 176.281 -26.0244 172.024C-22.485 167.441 -18.9456 162.826 -15.3738 158.211C-5.30762 145.146 4.79099 132.082 14.8896 119.049C16.0911 117.489 17.26 115.897 18.494 114.369C18.7537 114.077 19.0135 113.752 19.2733 113.427C19.4032 113.264 19.5331 113.102 19.6954 112.907C19.9227 112.647 20.15 112.387 20.3448 112.127C20.6696 111.769 20.9943 111.379 21.2541 110.957C21.2865 110.892 21.3514 110.827 21.3839 110.794C21.7086 110.404 22.0334 109.982 22.3906 109.592C22.8127 109.137 23.2023 108.682 23.4621 108.26C24.4362 107.09 25.3779 105.92 26.3521 104.717L29.2421 101.175C29.2421 101.175 29.2745 101.142 29.307 101.11C29.794 100.655 30.2487 100.102 30.6059 99.5172C30.9306 99.1272 31.2228 98.7372 31.5475 98.3472C31.6774 98.1847 31.8398 98.0222 31.9697 97.8597C32.197 97.5997 32.4242 97.3072 32.6516 97.0147C32.7814 96.8522 32.8788 96.7222 33.0087 96.5597C32.9113 96.6897 32.8139 96.7872 32.7165 96.9172L32.8789 96.7222C32.8789 96.7222 32.7814 96.8522 32.749 96.8847C32.749 96.8847 32.9438 96.6572 33.0412 96.5272C33.2036 96.3322 33.3335 96.1372 33.4958 95.9747C33.4309 96.0722 33.3334 96.1697 33.2685 96.2672C33.3334 96.1697 33.3984 96.1047 33.4958 96.0072C33.4958 96.0397 33.4309 96.0722 33.3984 96.1047C33.4309 96.0722 33.4633 96.0072 33.4958 95.9747C33.5283 95.9097 33.5932 95.8772 33.6257 95.8122C39.016 89.3448 44.4062 82.8774 49.8615 76.475C52.654 73.1925 55.5115 69.9751 58.369 66.7251C59.4405 65.5227 60.5121 64.3202 61.6161 63.1502C63.7267 60.9077 65.7725 58.6003 67.9805 56.4553C68.1104 56.3578 68.2403 56.2603 68.3702 56.1628C68.5975 56.0653 68.8248 55.9678 69.0521 55.8703C69.0521 56.2603 69.0521 56.6503 69.0521 57.0403C68.9547 57.3653 68.8573 57.7228 68.7599 58.0478C67.8506 60.2252 66.7466 62.2402 65.5776 64.2877C64.2787 66.5301 63.0774 68.8051 61.811 71.0801C61.9733 70.7876 62.1357 70.4951 62.3305 70.2026C62.1682 70.4951 61.9733 70.8201 61.811 71.1126C56.5181 80.2124 50.8681 89.0848 45.3155 97.9897C41.4838 104.165 37.7171 110.404 33.9179 116.612C26.3846 128.929 18.6888 141.149 11.1879 153.531C9.33701 156.586 7.51862 159.674 5.66772 162.761C3.91428 165.719 2.12836 168.676 0.472321 171.699C-1.3136 174.949 -3.03461 178.199 -4.72314 181.513C-5.66483 183.366 -6.41165 185.316 -7.15851 187.266C-7.48322 188.176 -8.10016 189.541 -8.00275 190.548C-8.00275 190.776 -7.93784 191.003 -7.93784 191.263C-8.00278 191.913 -7.77545 192.433 -7.28836 192.856C-6.8013 193.473 -6.41165 193.668 -5.63232 193.831C-5.46997 193.896 -5.27515 193.928 -5.11279 193.961C-4.52829 193.863 -3.94382 193.766 -3.39178 193.636C-2.4826 193.181 -1.63834 192.726 -0.794067 192.141C0.309967 191.393 1.28409 190.386 2.32318 189.541C6.67435 185.998 10.4086 181.741 14.1753 177.581C17.2925 174.136 20.3773 170.724 23.4946 167.279C25.4104 165.166 27.0989 162.859 28.8849 160.649C32.1645 156.586 35.4441 152.524 38.7238 148.429C46.9066 138.322 54.6672 127.857 62.5578 117.522C66.0323 112.972 69.6691 108.552 73.2084 104.067C77.2999 98.9322 81.3913 93.7322 85.4827 88.5973C94.6396 77.8075 103.699 66.9201 112.954 56.2278C123.117 44.528 133.378 32.8931 143.737 21.4208C145.035 19.9908 146.367 18.5608 147.666 17.1634C149.809 14.8234 151.919 12.3859 154.192 10.176C154.485 9.94847 154.809 9.72097 155.134 9.52597C155.329 9.42847 155.491 9.33097 155.686 9.23347C155.751 9.39597 155.783 9.52597 155.848 9.68847C155.848 9.75347 155.848 9.85097 155.848 9.91597C155.783 10.2735 155.686 10.5985 155.589 10.956C154.679 13.0034 153.575 14.9209 152.471 16.8709C151.205 19.1133 150.068 21.4208 148.802 23.6308C142.081 35.0706 134.839 46.2829 127.761 57.5278C125.163 61.6552 122.695 65.8801 120.162 70.0401C117.272 74.8175 114.252 79.5624 111.46 84.4049C111.72 83.9499 111.979 83.5274 112.239 83.0724C96.8152 109.365 81.7485 135.884 66.8116 162.469C63.4345 168.481 60.09 174.526 56.8428 180.603C55.2192 183.626 53.6931 186.713 52.1345 189.768C51.2902 191.458 50.5758 193.181 49.764 194.871C49.0497 196.431 48.4003 198.056 47.8482 199.681C47.491 200.753 47.1663 201.793 46.8741 202.898C46.5169 204.328 46.5169 205.758 46.6143 207.188C46.6792 208.033 46.9715 209.041 48.043 209.008C49.0822 209.008 50.0563 208.976 51.1278 208.781C52.1994 208.586 53.0436 208.196 54.0178 207.741C56.031 206.766 57.8494 205.433 59.6353 204.036C63.7592 200.818 67.7208 197.308 71.5524 193.733C79.0209 186.713 85.9373 179.043 93.1135 171.699C98.1141 166.564 102.985 161.266 107.92 156.066C118.701 144.659 129.482 133.219 140.23 121.747C149.744 111.607 159.128 101.37 168.61 91.1973C174.032 85.3799 179.488 79.5624 184.943 73.7775C189.521 68.9351 194.165 64.0927 199.036 59.5427C200.529 58.1778 201.99 56.7803 203.484 55.4478C202.9 56.6828 202.283 57.8853 201.666 59.0877C201.081 60.2577 200.302 63.2152 202.445 63.3777C203.159 63.3127 203.841 63.0852 204.426 62.6302C205.66 61.7852 206.569 60.4852 207.218 59.1852C208.485 56.6828 209.719 54.1478 210.855 51.5804C211.18 50.8329 211.44 50.0854 211.732 49.3379C211.862 48.6554 211.927 47.9729 211.992 47.2904C212.089 46.2829 211.31 45.5029 210.693 44.853C209.946 44.1055 208.55 45.048 207.933 45.3729C207.153 45.8279 206.374 46.2504 205.627 46.7379C204.621 47.3879 203.711 48.2654 202.802 49.0454C201.925 49.7929 201.081 50.5729 200.237 51.3529C198.938 52.5878 197.607 53.7578 196.34 54.9928C193.645 57.6253 190.983 60.2577 188.352 62.9552C183.514 67.9276 178.741 72.9325 174 78.0025C164.031 88.7273 154.16 99.4846 144.159 110.177C134.352 120.609 124.578 131.074 114.772 141.474C107.888 148.754 100.972 156.034 94.0876 163.314C91.6522 165.881 89.2169 168.384 86.7815 170.919C79.6703 178.328 72.6889 185.836 64.9932 192.628C64.8633 192.726 64.7659 192.823 64.636 192.953C61.811 195.358 58.9535 197.861 55.7713 199.778C55.3491 199.973 54.8945 200.168 54.4399 200.331C54.1152 200.363 53.7905 200.396 53.4658 200.428C53.6931 199.453 53.9854 198.478 54.2776 197.536C57.1675 190.191 61.0641 183.236 64.7659 176.314C67.9156 170.431 71.2277 164.614 74.5073 158.796C81.9108 145.601 89.4442 132.472 96.9127 119.309C98.6012 116.352 100.257 113.394 101.946 110.469C106.752 102.247 111.557 93.9922 116.331 85.7374C122.046 76.2475 127.761 66.7251 133.67 57.3328C137.729 50.8979 141.756 44.4305 145.782 37.9631C148.802 33.1206 151.789 28.2457 154.647 23.2733C155.654 21.5183 156.628 19.7308 157.537 17.9108C158.446 16.1559 159.453 14.4984 160.362 12.7759C161.304 11.0534 161.953 9.16848 162.44 7.251C162.505 6.86101 162.57 6.47102 162.602 6.08102C162.797 5.39853 162.797 4.68354 162.602 3.96855C162.473 2.86357 162.083 1.92108 161.726 0.881098C161.433 -0.0288885 160.265 -0.191386 159.518 0.198608C157.44 1.27109 155.394 2.24608 153.575 3.74106C151.692 5.30103 150.133 7.12101 148.477 8.90848C147.114 10.4035 145.75 11.8659 144.354 13.3609C141.886 16.0259 139.45 18.7558 136.982 21.4533C131.852 27.1407 126.819 32.8606 121.721 38.5805C112.109 49.4354 102.758 60.4852 93.4057 71.5676C89.1844 76.5725 84.8657 81.4799 80.8068 86.6148C74.7996 94.1872 68.7923 101.76 62.7526 109.332C59.2457 113.752 55.8362 118.204 52.4267 122.689C49.1796 126.914 45.9324 131.172 42.6853 135.397C41.2565 137.282 39.8278 139.232 38.3665 141.052C32.7815 147.974 27.2288 154.896 21.6437 161.786C18.8836 164.841 16.1235 167.864 13.3635 170.919C9.72665 174.916 6.15479 178.978 2.1608 182.618C2.51801 182.326 2.84274 182.001 3.19992 181.708C1.90106 182.846 0.569733 184.016 -0.859009 185.056C-0.339478 183.723 0.244995 182.391 0.894409 181.123L3.03754 176.931C3.97922 175.079 4.98584 173.291 5.99246 171.504C9.40198 165.686 12.8115 159.901 16.3184 154.116C20.0851 147.909 23.9817 141.734 27.7808 135.527C35.2493 123.404 42.6203 111.217 50.1537 99.0947C53.1735 94.2197 56.2258 89.3448 59.2457 84.4699C62.7851 78.75 66.2595 72.9975 69.4418 67.0826C71.0004 64.1577 72.7863 61.3302 74.1177 58.2753C74.7346 56.8778 75.1892 55.3828 75.5789 53.9203C76.0659 52.1003 75.8062 50.1829 75.7412 48.3629C75.6763 46.9329 74.7671 46.1854 73.3708 46.7379C72.4291 47.0954 71.4875 47.4204 70.5782 47.7779C69.2469 48.2979 68.1105 49.1754 67.0389 50.0854C65.4803 51.4179 64.0515 52.9453 62.6227 54.4403C60.9667 56.2278 59.2457 57.9503 57.6221 59.7702C54.8296 62.9552 52.0046 66.1076 49.277 69.3251C43.1723 76.4425 37.1001 83.5599 31.1903 90.8073C31.2878 90.7098 31.3527 90.6123 31.4501 90.5148C31.3527 90.6448 31.2228 90.7748 31.1254 90.9048C31.1903 90.8073 31.2553 90.7423 31.3527 90.6448C31.0929 90.9698 30.8332 91.2948 30.5409 91.6198C30.5409 91.6198 30.5734 91.5548 30.6059 91.5548C30.5085 91.6523 30.4435 91.7498 30.3461 91.8473C30.1188 92.1398 29.859 92.4323 29.6317 92.7248C29.6642 92.6598 29.7291 92.6273 29.7616 92.5623C29.6966 92.6273 29.6642 92.6923 29.5992 92.7572C29.5992 92.7572 29.5992 92.7572 29.5992 92.7897C29.794 92.5623 29.9889 92.3023 30.1837 92.0748C29.9564 92.3673 29.6967 92.6598 29.4693 92.9198C29.4369 92.9522 29.4044 93.0173 29.3395 93.0497C28.9823 93.4397 28.6576 93.8622 28.3653 94.2522C28.2679 94.3822 28.1705 94.5122 28.0731 94.6097C27.7809 94.9672 27.4886 95.2922 27.2288 95.6497C27.1314 95.7472 27.0664 95.8447 26.969 95.9422C26.5144 96.3647 26.1248 96.8847 25.8 97.4047C24.6311 98.8347 23.4621 100.265 22.2931 101.695C21.4813 102.702 20.5072 103.71 19.6954 104.847C19.4357 105.14 19.1759 105.465 18.9485 105.822C18.6238 106.212 18.2992 106.602 17.9745 107.025C17.5199 107.48 17.0977 107.967 16.7405 108.487C16.7405 108.487 16.7405 108.52 16.7081 108.552C16.3509 108.942 16.0262 109.365 15.7339 109.787C15.5391 110.015 15.3442 110.242 15.1494 110.502C15.2793 110.339 15.4092 110.209 15.5391 110.047C15.604 109.982 15.6365 109.917 15.7014 109.852C15.7988 109.755 15.8638 109.625 15.9612 109.527C15.8638 109.625 15.7664 109.755 15.7014 109.852C15.6365 109.95 15.5715 110.014 15.5066 110.112C13.8181 112.224 12.1945 114.369 10.5385 116.482L0.829498 128.962C-2.77484 133.609 -6.37918 138.257 -9.95105 142.937C-20.0497 156.001 -30.1158 169.066 -40.182 182.163C-41.4484 183.788 -42.6823 185.446 -43.9487 187.071C-44.2734 187.428 -44.5981 187.818 -44.8904 188.241C-44.7605 188.078 -44.5981 187.883 -44.4683 187.721C-44.5981 187.851 -44.6956 188.013 -44.8255 188.143C-44.8255 188.176 -44.8904 188.208 -44.9229 188.241C-45.0203 188.371 -45.1177 188.501 -45.2476 188.631C-45.1826 188.566 -45.1177 188.501 -45.0852 188.403C-45.1502 188.468 -45.2151 188.566 -45.2801 188.631C-45.1502 188.468 -45.0203 188.338 -44.9229 188.176C-45.1177 188.436 -45.345 188.696 -45.5398 188.923C-45.6697 189.053 -45.7672 189.216 -45.897 189.346C-45.8321 189.281 -45.7671 189.183 -45.7021 189.118C-45.897 189.346 -46.0918 189.606 -46.2867 189.833C-46.6439 190.223 -46.9686 190.613 -47.2608 191.036C-47.3582 191.166 -47.4881 191.296 -47.5855 191.426C-47.5855 191.393 -47.5206 191.361 -47.4881 191.328C-47.5206 191.361 -47.553 191.426 -47.5855 191.458C-47.9102 191.816 -48.2674 192.206 -48.5597 192.628C-48.722 192.791 -48.8519 192.953 -48.9818 193.148C-49.2415 193.441 -49.5013 193.766 -49.7286 194.091C-49.826 194.221 -49.9235 194.351 -50.0209 194.481C-50.2482 194.741 -50.4755 195.033 -50.7028 195.293C-51.2223 195.846 -51.6769 196.463 -52.1315 197.016C-52.2289 197.113 -52.2939 197.211 -52.3913 197.308C-52.5212 197.471 -52.6511 197.601 -52.7485 197.731C-53.1382 198.121 -53.4629 198.543 -53.7876 198.998C-53.82 199.063 -53.885 199.128 -53.9174 199.193C-54.0798 199.421 -54.2746 199.616 -54.437 199.843C-54.2746 199.648 -54.1447 199.486 -53.9824 199.291C-54.1447 199.486 -54.2746 199.681 -54.437 199.843C-54.7942 200.233 -55.1514 200.656 -55.4436 201.078C-55.6709 201.371 -55.9307 201.663 -56.158 201.956C-56.2229 202.021 -56.2879 202.118 -56.3528 202.183C-56.6126 202.443 -56.8399 202.736 -57.0996 203.028C-57.2945 203.256 -57.4893 203.483 -57.6841 203.743C-58.3336 204.458 -58.8856 205.238 -59.4701 205.986C-59.9572 206.473 -60.4118 207.026 -60.8014 207.611C-60.5417 207.286 -60.2494 206.928 -59.9897 206.603C-60.0871 206.701 -60.152 206.831 -60.2494 206.928C-60.4442 207.156 -60.6391 207.383 -60.8014 207.611C-60.8014 207.611 -60.8339 207.676 -60.8664 207.708C-60.8664 207.708 -60.8339 207.643 -60.8014 207.611C-60.8339 207.676 -60.8988 207.708 -60.9313 207.773C-60.9313 207.773 -61.0287 207.838 -61.0612 207.903L-60.8664 207.676C-60.8664 207.676 -60.8339 207.611 -60.8014 207.578C-60.8988 207.708 -61.0287 207.838 -61.1261 207.968C-61.1911 208.033 -61.256 208.131 -61.321 208.196C-61.321 208.228 -61.3859 208.261 -61.4184 208.293C-61.4184 208.326 -61.4833 208.358 -61.5158 208.391C-61.5482 208.456 -61.6132 208.521 -61.6457 208.553C-61.6132 208.521 -61.5807 208.456 -61.5482 208.423C-61.6132 208.488 -61.6781 208.586 -61.7431 208.651C-62.5873 209.626 -63.4966 210.568 -64.3733 211.51C-66.6138 213.948 -68.8543 216.385 -71.0949 218.823C-75.6734 223.828 -80.2518 228.833 -85.3174 233.35C-87.3956 235.138 -89.5387 236.893 -91.8766 238.323C-92.2014 238.485 -92.5261 238.615 -92.8508 238.713C-93.3379 238.713 -93.825 238.713 -94.312 238.713C-94.377 238.063 -94.312 237.445 -94.1497 236.795C-94.2146 237.185 -94.2795 237.575 -94.312 237.965C-93.8574 236.21 -93.3379 234.488 -92.7209 232.765C-89.9933 225.68 -86.4864 218.92 -83.1093 212.128C-80.2194 206.311 -77.1995 200.526 -74.1797 194.773C-67.4581 181.903 -60.7365 169.034 -53.7551 156.294C-45.897 141.929 -37.9415 127.597 -29.9535 113.297C-26.4791 107.057 -23.0046 100.85 -19.5301 94.6097C-12.841 82.6499 -6.022 70.7226 -0.209595 58.3078C1.05679 55.6103 2.19327 52.8153 3.16742 50.0204C4.17404 47.0629 4.72607 44.008 5.37549 40.953C5.53787 40.2055 5.79764 38.678 4.88846 38.1906C4.17407 37.8006 3.42719 37.3131 2.61542 37.1831C2.38809 37.1506 2.1608 37.1181 1.90103 37.0531C1.349 37.1181 0.829498 37.2481 0.309967 37.4431C-0.664185 37.8006 -1.67081 38.678 -2.38519 39.3605C-3.03461 39.9455 -3.58664 40.563 -4.17114 41.1805C-4.85303 41.928 -5.66479 42.643 -6.44412 43.358C-7.25592 44.138 -8.06769 44.983 -8.87949 45.7954C-9.5614 46.5104 -10.2433 47.2579 -10.9252 47.9729C-13.393 50.6379 -15.8609 53.2703 -18.2962 56.0003C-23.7515 62.1102 -29.0768 68.2526 -34.4021 74.4275C-39.3377 80.1799 -44.2085 85.9649 -49.0792 91.7173C-53.6577 97.0797 -58.0089 102.637 -62.425 108.097C-72.6211 120.739 -82.6547 133.479 -92.6559 146.251C-92.9807 146.674 -93.3054 147.064 -93.6626 147.486C-93.3379 147.096 -93.0132 146.706 -92.6884 146.316C-92.7209 146.381 -92.7858 146.446 -92.8183 146.511C-92.9807 146.706 -93.143 146.901 -93.3054 147.129C-93.208 146.999 -93.1106 146.901 -93.0132 146.771C-93.1106 146.869 -93.1755 146.999 -93.2729 147.096C-93.5976 147.486 -93.9548 147.909 -94.2795 148.299C-94.2471 148.234 -94.1821 148.201 -94.1497 148.136C-93.9548 147.876 -93.7275 147.649 -93.5327 147.389C-93.7275 147.616 -93.8899 147.844 -94.0847 148.071C-94.0847 148.039 -94.0197 148.006 -93.9873 147.974C-94.1172 148.136 -94.2471 148.299 -94.4094 148.494C-94.4094 148.494 -94.4094 148.494 -94.4094 148.526C-94.5718 148.721 -94.7341 148.916 -94.8965 149.111C-94.7341 148.916 -94.5718 148.689 -94.4094 148.494C-94.8315 148.949 -95.1887 149.404 -95.481 149.794C-95.5459 149.891 -95.6433 149.989 -95.7083 150.086C-95.7083 150.086 -95.7408 150.119 -95.7732 150.151C-95.968 150.379 -96.1629 150.606 -96.3252 150.834C-96.3577 150.866 -96.3902 150.931 -96.4226 150.964C-96.4226 150.964 -96.4551 150.996 -96.4876 151.029C-96.9747 151.646 -97.4617 152.231 -97.9813 152.849C-98.2411 153.174 -98.5658 153.531 -98.858 153.889C-99.1178 154.149 -99.3776 154.441 -99.5724 154.766C-99.7672 154.994 -99.962 155.254 -100.124 155.514C-100.189 155.611 -100.287 155.709 -100.352 155.806C-100.936 156.521 -101.521 157.236 -102.105 157.951C-101.943 157.756 -101.78 157.529 -101.586 157.334C-101.78 157.561 -101.943 157.756 -102.138 157.984C-102.268 158.179 -102.43 158.341 -102.56 158.536C-102.43 158.374 -102.268 158.179 -102.138 158.016C-102.82 158.861 -103.534 159.706 -104.216 160.551C-104.216 160.551 -104.216 160.551 -104.216 160.584C-104.378 160.779 -104.508 160.941 -104.67 161.136C-104.573 161.006 -104.443 160.876 -104.346 160.714C-104.8 161.266 -105.255 161.851 -105.742 162.404C-106.034 162.729 -106.326 163.086 -106.586 163.411C-106.976 163.866 -107.366 164.354 -107.723 164.841C-107.853 164.971 -107.95 165.134 -108.08 165.264C-108.437 165.621 -108.794 166.044 -109.087 166.466C-109.346 166.759 -109.574 167.084 -109.833 167.376C-109.931 167.474 -109.996 167.571 -110.093 167.701C-110.385 167.994 -110.678 168.351 -110.937 168.676C-111.295 169.099 -111.619 169.521 -111.944 169.944C-112.171 170.236 -112.399 170.496 -112.626 170.789C-112.626 170.789 -112.691 170.854 -112.691 170.886C-112.788 170.984 -112.886 171.114 -112.983 171.211C-112.918 171.146 -112.886 171.081 -112.821 171.016C-112.918 171.114 -112.983 171.211 -113.081 171.341C-113.308 171.634 -113.568 171.926 -113.795 172.219C-113.762 172.186 -113.73 172.154 -113.697 172.089C-116.522 175.501 -119.477 178.816 -122.367 182.163C-126.102 186.518 -129.836 190.906 -133.57 195.261C-134.414 196.236 -135.388 197.178 -136.298 198.121L-143.993 206.083C-146.201 208.358 -148.41 210.666 -150.618 212.94C-153.735 216.158 -157.047 219.148 -160.392 222.105C-162.048 223.535 -163.769 224.9 -165.49 226.265C-167.438 227.793 -169.354 229.32 -171.432 230.62C-172.536 231.173 -173.672 231.693 -174.874 232.05C-174.906 232.05 -174.939 232.05 -175.004 232.05C-175.069 231.888 -175.101 231.758 -175.166 231.595C-175.166 231.433 -175.166 231.27 -175.166 231.14C-174.906 230.035 -174.582 228.93 -174.224 227.858C-172.341 223.08 -169.873 218.628 -167.47 214.143C-160.651 202.443 -153.637 190.841 -146.494 179.303C-138.408 166.174 -130.29 153.109 -122.043 140.077C-118.633 134.682 -115.386 129.189 -112.041 123.762C-109.606 119.829 -107.236 115.864 -104.93 111.899C-101.456 105.92 -97.9488 99.9072 -94.4744 93.9272C-90.8376 87.6873 -87.1683 81.4474 -83.9536 74.98C-82.2651 71.5676 -80.1869 68.2526 -78.953 64.6127C-78.3685 62.9227 -78.0438 61.2327 -77.9464 59.4452C-78.0438 58.8602 -78.1412 58.2428 -78.2711 57.6578C-78.401 57.3653 -78.4984 57.0728 -78.6283 56.8128C-78.9205 56.2603 -79.2127 55.7078 -79.505 55.1228C-79.9271 54.2453 -80.8688 54.0178 -81.713 54.4403C-83.5639 55.3503 -85.4473 56.1953 -87.2007 57.2678C-88.1749 57.8528 -89.0516 58.7303 -89.9283 59.4777C-90.7076 60.1927 -91.487 60.9402 -92.2338 61.6877C-93.8574 63.2477 -95.4485 64.8402 -97.0721 66.4326C-99.5724 68.9351 -102.073 71.4376 -104.541 73.94C-110.158 79.6599 -115.678 85.4449 -121.231 91.2623C-126.426 96.6897 -131.492 102.247 -136.622 107.74C-141.655 113.102 -146.461 118.659 -151.364 124.152C-153.02 126.004 -154.741 127.824 -156.365 129.742C-158.443 132.244 -160.554 134.682 -162.632 137.184C-167.86 143.392 -173.153 149.534 -178.283 155.839C-177.959 155.449 -177.634 155.026 -177.309 154.636C-184.42 163.216 -191.499 171.829 -198.546 180.441C-198.513 180.408 -198.481 180.376 -198.448 180.311C-201.63 184.081 -204.748 187.851 -207.897 191.653C-210.073 194.253 -212.248 196.853 -214.424 199.486C-215.268 200.493 -216.113 201.566 -216.989 202.541C-220.821 206.733 -224.653 210.926 -228.484 215.118C-233.647 220.74 -238.81 226.363 -244.525 231.433C-247.155 233.643 -249.85 235.853 -252.805 237.64C-254.039 238.225 -255.273 238.745 -256.572 239.135C-256.962 239.168 -257.286 239.2 -257.644 239.135C-257.644 239.135 -257.676 239.135 -257.709 239.103C-257.838 238.843 -257.968 238.55 -258.033 238.258C-258.033 238.128 -257.968 238.03 -257.936 237.9C-257.936 237.965 -257.968 237.998 -258.001 238.063C-257.741 237.413 -257.514 236.73 -257.286 236.08C-255.241 230.913 -252.513 226.103 -249.818 221.26C-235.011 196.268 -219.003 171.991 -203.384 147.519C-198.903 140.532 -194.487 133.479 -190.038 126.459C-186.401 120.707 -182.634 115.052 -178.933 109.332C-175.263 103.71 -171.627 98.0872 -167.99 92.4323C-165.36 88.3048 -162.729 84.2099 -160.099 80.0824C-159.093 78.5225 -158.118 76.9625 -157.144 75.37C-155.813 73.1925 -154.482 71.0151 -153.183 68.7726C-151.754 66.3351 -150.455 63.8327 -149.124 61.3302C-148.247 59.8677 -147.37 58.4378 -146.559 56.9428C-145.617 55.2203 -145.162 53.3678 -145 51.4179C-145.032 51.1904 -145.065 50.9954 -145.097 50.7679C-145.033 50.2154 -145.195 49.7604 -145.552 49.3704C-146.104 48.6229 -146.429 48.3629 -147.338 48.1354C-149.416 47.6154 -151.462 49.6629 -152.696 51.0279C-155.358 53.9853 -158.086 56.8778 -160.749 59.8352C-165.782 65.4577 -170.555 71.2751 -175.393 77.06C-184.226 87.6873 -192.701 98.5747 -201.176 109.495C-211.372 122.559 -221.535 135.689 -231.666 148.819C-235.368 153.661 -239.167 158.439 -242.967 163.216C-247.155 168.514 -251.279 173.844 -255.533 179.108C-261.215 186.193 -266.898 193.278 -272.613 200.363C-280.861 210.178 -289.271 219.928 -298.915 228.41C-300.311 229.58 -301.707 230.685 -303.104 231.823C-304.597 233.025 -306.124 234.195 -307.747 235.203C-308.332 235.463 -308.916 235.723 -309.533 235.885C-310.085 235.918 -310.637 235.95 -311.189 235.95C-311.189 235.658 -311.254 235.333 -311.254 235.04C-311.254 235.04 -311.254 234.975 -311.254 234.943C-309.241 230.133 -306.578 225.55 -304.045 221C-297.096 209.236 -289.953 197.568 -282.614 186.031C-274.561 173.421 -266.443 160.811 -258.488 148.136C-251.117 136.372 -243.713 124.639 -236.18 112.939C-232.933 107.902 -229.718 102.897 -226.536 97.8272C-224.393 94.4147 -222.25 90.9698 -220.107 87.5248C-218.645 85.2174 -217.282 82.8774 -215.918 80.5049C-214.619 78.2625 -213.417 75.9875 -212.378 73.615C-211.502 71.6001 -211.015 69.4551 -210.43 67.3751C-210.203 66.6601 -210.203 65.9776 -210.43 65.2627C-210.82 64.3852 -211.794 64.1577 -212.638 64.5802C-214.554 65.5551 -216.307 66.4976 -217.866 67.9926C-218.938 69.0651 -219.912 70.1701 -220.918 71.3076L-225.367 76.3125C-227.575 78.7825 -229.751 81.3174 -231.894 83.8524C-236.894 89.7348 -241.862 95.6172 -246.798 101.532C-256.02 112.549 -265.209 123.567 -274.334 134.649C-284.303 146.739 -294.271 158.861 -304.24 170.919C-305.474 172.414 -306.805 173.876 -308.104 175.339C-311.514 179.206 -314.956 183.106 -318.365 186.973C-320.703 189.606 -323.041 192.238 -325.379 194.903C-327.133 196.886 -329.048 198.771 -330.899 200.721C-339.894 210.146 -348.726 219.765 -358.565 228.345C-358.435 228.248 -358.305 228.15 -358.175 228.02C-361.552 230.945 -364.962 233.903 -368.794 236.243C-369.67 236.698 -370.547 237.023 -371.521 237.348C-372.073 237.51 -372.625 237.673 -373.177 237.803C-373.177 237.705 -373.242 237.64 -373.275 237.543C-372.788 236.503 -372.268 235.495 -371.781 234.455C-371.164 233.123 -370.45 231.855 -369.735 230.588C-368.177 227.988 -366.683 225.388 -365.027 222.853C-363.111 219.895 -361.228 216.905 -359.279 213.98C-354.733 207.123 -350.09 200.363 -345.479 193.571C-337.036 181.253 -328.594 168.969 -320.151 156.651C-312.65 145.699 -305.182 134.714 -297.778 123.697C-293.46 117.262 -289.076 110.892 -284.855 104.392C-280.374 97.4697 -275.86 90.5148 -271.379 83.5924C-267.58 77.7425 -264.073 71.7301 -260.631 65.6526C-259.202 63.2802 -257.676 60.9727 -256.702 58.3728C-256.41 57.6578 -256.15 56.9103 -255.988 56.1628C-255.89 55.4803 -255.793 54.7653 -255.695 54.0503C-255.793 53.4978 -255.858 52.9453 -255.988 52.3928C-256.182 51.9053 -256.41 51.4179 -256.637 50.9304C-257.286 49.4679 -258.878 50.2154 -259.819 50.8004C-261.735 52.0028 -263.521 53.1728 -265.177 54.7003C-266.411 55.8378 -267.58 57.0403 -268.749 58.2428L-273.587 63.2802C-276.055 65.8476 -278.393 68.5126 -280.828 71.1451C-285.472 76.1825 -289.953 81.3824 -294.466 86.5173C-303.883 97.1772 -313.267 107.902 -322.424 118.789C-333.107 131.464 -343.758 144.204 -354.344 156.976C-363.631 168.156 -372.853 179.401 -382.107 190.613C-385.322 194.513 -388.666 198.348 -391.946 202.216L-404.512 217.003C-405.681 218.4 -407.045 219.668 -408.311 220.968C-411.234 223.99 -414.124 227.045 -417.046 230.1C-419.319 232.473 -421.592 234.845 -423.865 237.25C-424.937 238.355 -426.073 239.428 -427.177 240.5C-430.327 243.555 -433.574 246.545 -436.886 249.437C-439.744 251.875 -442.634 254.215 -445.589 256.49C-448.771 258.927 -452.148 261.007 -455.59 263.022C-456.044 263.217 -456.467 263.412 -456.921 263.542C-456.954 263.542 -457.019 263.542 -457.051 263.542C-457.149 263.477 -457.246 263.412 -457.343 263.347C-457.376 263.282 -457.441 263.217 -457.473 263.152C-457.311 262.437 -457.116 261.755 -456.889 261.072C-455.395 257.465 -453.512 254.117 -451.596 250.737C-443.77 238.03 -435.522 225.648 -427.34 213.168C-419.157 200.753 -411.136 188.208 -403.148 175.664C-396.589 165.329 -390.16 154.929 -383.406 144.691C-379.639 139.004 -375.872 133.317 -372.106 127.629C-369.54 123.762 -367.008 119.927 -364.475 116.059C-363.533 114.629 -362.592 113.199 -361.682 111.802C-360.351 109.755 -359.052 107.707 -357.818 105.627C-356.714 103.742 -355.74 101.825 -354.766 99.8746C-354.376 99.0947 -353.954 97.7947 -354.344 96.9172C-354.701 96.1047 -355.513 96.0072 -356.26 96.2997C-356.844 96.4947 -357.396 96.7547 -357.948 97.1122C-358.468 97.5672 -359.02 98.0222 -359.507 98.5097C-359.994 99.0947 -360.481 99.6797 -360.935 100.297C-361.26 100.687 -361.552 101.11 -361.845 101.5C-362.786 102.702 -363.696 103.905 -364.572 105.14C-366.163 107.415 -367.69 109.69 -369.216 111.997C-372.723 117.327 -376.132 122.689 -379.607 128.019C-380.094 128.702 -380.418 129.449 -380.646 130.229C-380.776 130.847 -380.938 131.757 -380.483 132.342C-383.536 136.957 -386.588 141.539 -389.64 146.154C-391.134 148.396 -392.53 150.704 -393.991 152.979C-396.654 157.204 -399.317 161.396 -402.012 165.621C-405.876 171.699 -409.773 177.744 -413.637 183.788C-421.527 196.138 -429.613 208.391 -437.698 220.61C-441.465 226.33 -445.231 232.018 -448.901 237.738C-450.979 240.955 -452.992 244.173 -455.005 247.422C-455.915 248.885 -456.759 250.347 -457.571 251.842C-459.097 254.572 -460.623 257.237 -461.857 260.13C-462.799 262.307 -463.61 264.55 -463.903 266.89C-463.935 267.182 -463.968 267.475 -464 267.767C-463.935 268.352 -463.87 268.905 -463.773 269.457H-463.513V269.815ZM-457.278 263.412C-457.278 263.152 -457.246 262.925 -457.181 262.665L-457.278 263.412ZM-457.278 263.672C-457.278 263.672 -457.278 263.802 -457.246 263.867C-457.246 263.802 -457.246 263.737 -457.246 263.672H-457.278ZM-457.278 264.062C-457.278 264.16 -457.278 264.257 -457.246 264.355C-457.246 264.257 -457.278 264.16 -457.311 264.062H-457.278ZM-357.721 228.118C-357.721 228.118 -357.526 227.955 -357.429 227.858C-357.526 227.955 -357.623 228.02 -357.721 228.118ZM-298.882 228.8C-298.882 228.8 -298.688 228.638 -298.558 228.54C-298.655 228.638 -298.753 228.703 -298.882 228.8ZM-258.326 239.46C-258.228 239.233 -258.163 239.005 -258.066 238.745C-258.163 238.973 -258.228 239.2 -258.326 239.46ZM-175.686 232.245C-175.686 232.245 -175.491 232.31 -175.361 232.343C-175.458 232.343 -175.556 232.278 -175.686 232.245ZM-175.263 231.14C-175.263 231.14 -175.198 231.465 -175.198 231.628C-175.231 231.465 -175.263 231.303 -175.263 231.14ZM-174.614 232.375C-174.614 232.375 -174.354 232.31 -174.257 232.31C-174.387 232.343 -174.517 232.375 -174.614 232.375ZM-173.9 83.2349C-173.9 83.2349 -173.737 83.0074 -173.64 82.9099C-173.51 82.7799 -173.413 82.6174 -173.283 82.4874C-173.478 82.7474 -173.705 82.9749 -173.9 83.2349ZM-151.884 55.9353C-151.819 56.1303 -151.787 56.3253 -151.787 56.5203C-151.819 56.3253 -151.852 56.1303 -151.884 55.9353ZM-149.676 62.6952C-149.546 62.4677 -149.416 62.2402 -149.254 61.9802C-149.384 62.2077 -149.514 62.4352 -149.676 62.6952ZM-114.12 172.999C-113.957 172.771 -113.762 172.544 -113.6 172.349C-113.795 172.576 -113.957 172.804 -114.152 173.031L-114.12 172.999ZM-113.503 172.251C-113.275 171.959 -113.016 171.634 -112.756 171.341C-113.016 171.634 -113.243 171.959 -113.503 172.251ZM-110.645 176.411C-110.418 176.151 -110.191 175.859 -109.963 175.566C-110.061 175.664 -110.126 175.761 -110.223 175.859C-110.223 175.826 -110.158 175.794 -110.126 175.761C-110.32 175.989 -110.515 176.216 -110.678 176.444L-110.645 176.411ZM-109.606 175.176C-109.606 175.176 -109.574 175.111 -109.541 175.079C-109.541 175.079 -109.574 175.144 -109.606 175.176ZM-109.509 175.046C-109.509 175.046 -109.411 174.916 -109.379 174.884C-109.379 174.884 -109.379 174.884 -109.379 174.851C-109.444 174.916 -109.476 174.981 -109.541 175.046H-109.509ZM-108.859 174.234C-108.859 174.234 -108.859 174.234 -108.859 174.266V174.234ZM-108.859 174.234C-108.859 174.234 -108.827 174.201 -108.794 174.169C-108.794 174.169 -108.794 174.169 -108.827 174.201L-108.859 174.234ZM-93.4028 147.649C-93.4028 147.649 -93.4028 147.616 -93.3703 147.584C-93.3703 147.584 -93.3703 147.616 -93.4028 147.649ZM-84.6355 64.8727C-84.5706 65.1002 -84.5381 65.3277 -84.5381 65.5552C-84.5706 65.3277 -84.603 65.1002 -84.6355 64.8727ZM-62.5224 210.016C-62.2626 209.691 -62.0028 209.366 -61.7431 209.041C-61.7431 209.041 -61.7431 209.041 -61.7431 209.073C-62.0028 209.398 -62.2626 209.691 -62.4899 209.983L-62.5224 210.016ZM-58.7557 213.07C-58.7557 213.07 -58.6908 212.973 -58.6258 212.94C-58.6258 212.94 -58.6258 212.973 -58.6583 213.005C-58.6583 213.005 -58.6908 213.07 -58.7232 213.103L-58.7557 213.07ZM-51.7419 196.821C-51.7419 196.821 -51.547 196.561 -51.4496 196.463C-51.547 196.593 -51.6445 196.723 -51.7419 196.821ZM-48.9818 201.111C-48.8519 200.948 -48.722 200.786 -48.5921 200.623C-48.722 200.786 -48.8844 200.981 -49.0143 201.143L-48.9818 201.111ZM-44.3708 187.818C-44.3708 187.818 -44.3384 187.753 -44.3059 187.753C-44.3059 187.753 -44.3059 187.721 -44.2734 187.688C-44.2734 187.688 -44.3059 187.721 -44.3383 187.753C-44.3383 187.753 -44.3384 187.786 -44.3708 187.818ZM-44.2734 187.688C-44.2734 187.688 -44.0786 187.461 -43.9812 187.331C-44.0136 187.396 -44.0786 187.428 -44.1111 187.493C-44.176 187.558 -44.2085 187.623 -44.2734 187.688ZM-43.6889 186.973C-43.6889 186.973 -43.5915 186.843 -43.5266 186.778C-43.5915 186.843 -43.624 186.908 -43.6889 186.973ZM-2.93719 51.9378C-2.93719 51.9378 -2.83981 51.6779 -2.80734 51.5804C-2.83981 51.7104 -2.90472 51.8403 -2.93719 51.9378ZM-1.54095 185.218C-1.54095 185.218 -1.44351 185.218 -1.41104 185.251C-1.41104 185.251 -1.50848 185.251 -1.54095 185.218ZM-1.54095 187.233C-1.54095 187.233 -1.44351 187.006 -1.41104 186.876C-1.44351 187.006 -1.50848 187.103 -1.54095 187.233ZM-0.826569 185.381C-0.631744 185.348 -0.469391 185.316 -0.274567 185.283C-0.469391 185.381 -0.664215 185.413 -0.826569 185.413V185.381ZM5.63528 172.414C5.63528 172.414 5.79761 172.154 5.86255 172.024C5.79761 172.154 5.70023 172.284 5.63528 172.414ZM18.0719 114.857C18.0719 114.857 18.2018 114.694 18.2667 114.629C18.3316 114.564 18.3641 114.499 18.429 114.434C18.2992 114.564 18.2018 114.727 18.0719 114.857ZM31.0605 91.3273C31.0605 91.3273 31.1579 91.2298 31.1903 91.1648C31.1579 91.2298 31.0929 91.2623 31.0605 91.3273ZM33.6581 95.8122C33.6581 95.8122 33.6906 95.7797 33.7231 95.7472C33.7881 95.6497 33.853 95.5847 33.9179 95.4872C33.8855 95.5522 33.8205 95.5847 33.7881 95.6497C33.853 95.5522 33.9504 95.4547 34.0153 95.3897C34.1128 95.2922 34.2102 95.1622 34.2751 95.0647C34.1777 95.1622 34.1128 95.2597 34.0153 95.3572C34.0478 95.2922 34.1128 95.2597 34.1452 95.1947C34.1452 95.1947 34.1128 95.2597 34.0803 95.2597C34.0478 95.2922 34.0154 95.3572 33.9829 95.3897C33.8855 95.5197 33.7556 95.6497 33.6581 95.8122ZM102.335 110.015C102.335 110.015 102.498 109.755 102.563 109.625C102.498 109.755 102.4 109.885 102.335 110.015ZM153.64 10.7935C153.64 10.7935 153.933 10.5335 154.062 10.436C153.933 10.566 153.77 10.696 153.64 10.7935ZM155.394 11.9634C155.459 11.7684 155.524 11.5734 155.621 11.3784C155.556 11.5734 155.491 11.7684 155.394 11.9634ZM155.848 11.0209C155.881 10.696 155.946 10.371 155.978 10.046C155.978 10.371 155.913 10.696 155.848 11.0209ZM155.913 9.23347C155.913 9.33097 155.913 9.42847 155.946 9.52597C155.946 9.42847 155.913 9.33097 155.881 9.26597L155.913 9.23347ZM61.8759 71.0476C61.8759 71.0476 61.8759 71.0476 61.8759 71.0801V71.0476ZM33.9504 95.4547C33.9504 95.4547 33.9504 95.4222 33.9829 95.3897C33.9829 95.4222 33.9179 95.4547 33.8855 95.4872C33.8855 95.4872 33.918 95.4222 33.9504 95.3897V95.4547ZM33.3335 96.2022C33.3335 96.2022 33.1711 96.3647 33.1061 96.4622C33.0412 96.5272 33.0088 96.5922 32.9438 96.6572C33.0737 96.4947 33.2036 96.3647 33.301 96.2022H33.3335ZM31.1903 91.1648C31.1903 91.1648 31.2553 91.0673 31.3203 91.0348C31.2878 91.0673 31.2552 91.1323 31.2228 91.1648C31.2877 91.0998 31.3527 91.0023 31.4177 90.9373C31.2228 91.1973 30.9955 91.4573 30.8007 91.7173C30.8981 91.6198 30.963 91.5223 31.0605 91.4248C30.963 91.5548 30.8656 91.6523 30.7682 91.7823C30.7682 91.7823 30.7033 91.8473 30.7033 91.8798C30.8656 91.6523 31.0604 91.4248 31.2228 91.2298L31.1903 91.1648ZM30.6059 91.8798C30.6059 91.8798 30.7032 91.7823 30.7357 91.7173C30.7357 91.7173 30.7357 91.7173 30.7357 91.6848C30.6708 91.7498 30.6383 91.8148 30.5734 91.8798H30.6059ZM30.5409 91.9773C30.5409 91.9773 30.6708 91.8148 30.7357 91.7498C30.7032 91.7823 30.6708 91.8473 30.6383 91.8798C30.6383 91.8798 30.6058 91.9448 30.5734 91.9448C30.5734 91.9448 30.6058 91.9123 30.6383 91.8798C30.411 92.1398 30.1837 92.4323 29.9564 92.6923C30.1512 92.4648 30.3461 92.2048 30.5409 91.9773ZM15.604 110.274C15.604 110.274 15.7339 110.112 15.8313 110.015C15.8313 110.015 15.7339 110.144 15.6689 110.209C15.5391 110.372 15.4092 110.534 15.2793 110.664C15.2144 110.729 15.1494 110.794 15.1169 110.892C15.2793 110.697 15.4417 110.502 15.604 110.307V110.274ZM-44.8255 188.436C-44.8904 188.501 -44.9228 188.566 -44.9878 188.631C-44.9228 188.566 -44.8904 188.501 -44.8255 188.468V188.436ZM-47.1634 191.296C-47.1634 191.296 -47.3257 191.491 -47.4231 191.621C-47.3257 191.523 -47.2608 191.393 -47.1634 191.296ZM-57.327 211.413C-57.327 211.413 -57.327 211.446 -57.3594 211.478C-57.4568 211.576 -57.5218 211.706 -57.6192 211.803C-57.6841 211.868 -57.7491 211.965 -57.814 212.031C-57.6517 211.836 -57.4893 211.608 -57.327 211.413ZM-57.814 212.031C-57.814 212.031 -58.0089 212.29 -58.1063 212.388C-58.0089 212.258 -57.9114 212.128 -57.814 212.031ZM-59.2103 213.72C-59.2103 213.72 -59.3402 213.883 -59.4052 213.948C-59.3402 213.883 -59.2752 213.785 -59.2103 213.72ZM-60.8988 208.098L-60.8339 208.033C-60.8339 208.033 -60.8664 208.066 -60.8988 208.098ZM-89.6361 150.801C-89.6361 150.801 -89.5062 150.639 -89.4413 150.541C-89.5387 150.671 -89.6686 150.801 -89.766 150.964C-89.7335 150.899 -89.6686 150.866 -89.6361 150.801ZM-89.4088 150.509C-89.4088 150.509 -89.5062 150.639 -89.5711 150.704C-89.5711 150.704 -89.6361 150.769 -89.6361 150.801C-89.6686 150.834 -89.701 150.899 -89.7335 150.931C-89.8634 151.061 -89.9608 151.224 -90.0907 151.354C-89.9933 151.224 -89.8634 151.094 -89.766 150.964C-89.9608 151.191 -90.1557 151.451 -90.3505 151.679C-90.0258 151.289 -89.701 150.899 -89.4088 150.509ZM-90.6752 152.069C-90.6752 152.069 -90.7076 152.134 -90.7401 152.134C-90.7401 152.134 -90.7077 152.101 -90.6752 152.069ZM-90.7401 152.134C-90.7401 152.134 -90.7401 152.134 -90.7726 152.166C-90.7726 152.166 -90.7401 152.166 -90.7077 152.134H-90.7401ZM-90.7726 152.166C-90.8051 152.199 -90.8376 152.231 -90.87 152.296C-90.8376 152.264 -90.8051 152.231 -90.7726 152.166ZM-90.7726 152.166C-90.7726 152.166 -90.935 152.361 -91.0324 152.459C-91.1298 152.556 -91.1947 152.686 -91.2922 152.784C-91.1298 152.589 -90.935 152.361 -90.7726 152.166ZM-93.9873 148.429C-93.9873 148.429 -94.0198 148.461 -94.0522 148.494C-94.0522 148.526 -94.1172 148.559 -94.1497 148.624C-94.0847 148.559 -94.0522 148.494 -93.9873 148.429ZM-94.3445 148.851C-94.3445 148.851 -94.2146 148.721 -94.1821 148.656C-94.2471 148.721 -94.312 148.786 -94.377 148.884L-94.3445 148.851ZM-102.138 158.374C-102.138 158.374 -102.138 158.374 -102.138 158.341C-102.138 158.341 -102.138 158.374 -102.17 158.406L-102.138 158.374ZM-104.248 160.941C-104.248 160.941 -104.248 160.941 -104.248 160.909C-104.086 160.714 -103.924 160.486 -103.761 160.291C-103.988 160.551 -104.183 160.811 -104.411 161.071C-104.378 161.039 -104.346 160.974 -104.281 160.941H-104.248ZM-108.729 174.071C-108.729 174.071 -108.729 174.039 -108.697 174.006L-108.729 174.071ZM-109.898 175.501C-109.931 175.566 -109.996 175.599 -110.028 175.664C-109.996 175.599 -109.931 175.534 -109.898 175.501ZM-109.963 175.599C-110.126 175.794 -110.288 175.989 -110.483 176.216C-110.32 176.021 -110.158 175.826 -109.963 175.599ZM-110.483 176.216C-110.483 176.216 -110.515 176.249 -110.548 176.281C-110.548 176.281 -110.515 176.216 -110.483 176.216ZM-110.548 176.281C-110.678 176.444 -110.84 176.606 -110.97 176.801C-110.84 176.639 -110.71 176.476 -110.548 176.281ZM-195.72 185.121L-196.24 185.738C-196.078 185.543 -195.915 185.348 -195.72 185.121Z" fill="#B3A0CD"/>
</svg>
